<?xml version="1.0" encoding="UTF-8" standalone="no"?>
<!DOCTYPE svg PUBLIC "-//W3C//DTD SVG 1.1//EN" "http://www.w3.org/Graphics/SVG/1.1/DTD/svg11.dtd">
<svg xmlns="http://www.w3.org/2000/svg" version="1.1" viewBox="0 0 1633 1283">
<g stroke-width="2.0" fill="none" stroke-linecap="butt">
<path stroke="#282a2c" vector-effect="non-scaling-stroke" d="
  M 52.04 382.25
  Q 52.21 446.13 51.17 510.00
  Q 51.00 520.47 51.00 530.00
  Q 50.97 683.37 51.04 836.75"
/>
<path stroke="#26282a" vector-effect="non-scaling-stroke" d="
  M 51.04 836.75
  Q 51.17 929.75 50.79 1022.75
  Q 50.75 1032.20 50.77 1042.76
  Q 50.90 1110.04 50.17 1177.31
  Q 50.07 1186.81 50.09 1197.30
  Q 50.13 1217.71 49.99 1238.80
  A 0.95 0.94 89.7 0 0 50.94 1239.75
  Q 116.28 1239.08 182.00 1239.22
  Q 192.32 1239.25 202.01 1239.16
  Q 256.98 1238.68 267.50 1238.75
  Q 299.23 1238.96 315.26 1238.86
  Q 334.76 1238.75 335.26 1238.75
  Q 434.00 1238.78 532.75 1238.71"
/>
<path stroke="#2c2e30" vector-effect="non-scaling-stroke" d="
  M 532.75 1238.71
  Q 620.62 1239.13 708.50 1239.25
  Q 711.67 1239.25 718.50 1239.25
  Q 863.31 1239.16 1214.00 1239.46"
/>
<path stroke="#27292b" vector-effect="non-scaling-stroke" d="
  M 1214.00 1239.46
  Q 1228.38 1239.82 1242.76 1239.67
  Q 1256.96 1239.52 1262.76 1239.54
  Q 1291.29 1239.65 1319.83 1239.74
  Q 1319.89 1239.74 1324.16 1239.62
  Q 1327.58 1239.52 1332.00 1240.00
  Q 1335.99 1240.43 1341.50 1240.23
  Q 1349.95 1239.93 1350.01 1239.92
  Q 1403.16 1239.00 1456.33 1239.21
  Q 1463.89 1239.24 1473.16 1239.55
  Q 1481.58 1239.82 1490.00 1240.03
  Q 1499.09 1240.25 1510.00 1239.94
  Q 1543.48 1238.99 1578.41 1239.00
  A 1.29 1.29 -89.5 0 0 1579.70 1237.73
  Q 1580.00 1219.72 1579.75 1201.00
  Q 1579.58 1188.48 1580.06 1141.75
  Q 1580.38 1110.25 1579.92 1078.75
  Q 1579.78 1069.76 1579.94 1058.76
  Q 1580.08 1048.26 1580.01 1037.75
  Q 1579.80 1005.40 1579.90 973.05
  Q 1579.93 963.22 1579.86 953.06
  Q 1579.55 902.94 1580.16 852.83
  Q 1580.24 845.70 1580.04 838.17
  Q 1579.76 828.09 1579.75 823.50
  Q 1579.58 745.83 1579.50 481.25
  Q 1579.48 428.85 1579.67 400.50
  Q 1579.74 390.34 1579.66 380.51
  Q 1579.37 344.63 1579.66 308.75
  Q 1579.75 297.87 1579.72 288.75
  Q 1579.37 185.30 1579.49 81.85
  Q 1579.49 77.99 1579.77 64.16
  Q 1579.94 55.33 1579.75 46.48
  A 0.75 0.75 89.2 0 0 1579.00 45.75
  L 1322.50 46.04"
/>
<path stroke="#2b2d2f" vector-effect="non-scaling-stroke" d="
  M 1322.50 46.04
  L 1115.00 46.54"
/>
<path stroke="#2e3133" vector-effect="non-scaling-stroke" d="
  M 1115.00 46.54
  Q 1053.13 46.47 991.26 46.50
  Q 991.17 46.50 982.26 46.66
  Q 976.48 46.77 968.00 46.50
  Q 956.19 46.12 912.25 46.72
  Q 910.47 46.74 907.26 46.53
  Q 904.76 46.37 902.25 46.44
  Q 888.88 46.80 875.50 46.50
  Q 861.04 46.18 825.25 46.62
  Q 814.97 46.74 805.25 46.70
  Q 731.13 46.34 623.94 46.69
  Q 607.65 46.74 534.75 46.54"
/>
<path stroke="#2a2c2e" vector-effect="non-scaling-stroke" d="
  M 534.75 46.54
  Q 437.37 46.47 340.00 46.50
  Q 310.38 46.51 296.75 46.79"
/>
<path stroke="#242627" vector-effect="non-scaling-stroke" d="
  M 296.75 46.79
  Q 287.16 46.45 277.57 46.55
  Q 263.32 46.69 258.42 46.62
  Q 212.71 46.02 167.00 45.39
  Q 157.73 45.26 147.00 45.25
  Q 108.75 45.23 70.50 44.64
  Q 61.75 44.50 51.50 44.50
  A 1.02 1.02 89.7 0 0 50.48 45.53
  Q 51.48 138.37 51.62 229.75
  Q 51.73 306.00 52.04 382.25"
/>
<path stroke="#323537" vector-effect="non-scaling-stroke" d="
  M 296.75 46.79
  L 284.20 64.97
  Q 283.14 66.50 281.16 66.50
  Q 231.12 66.52 181.75 66.00
  Q 149.76 65.66 106.69 66.83
  Q 99.94 67.02 94.82 67.39
  Q 85.84 68.06 83.00 68.75
  Q 80.13 69.45 79.00 72.96"
/>
<path stroke="#464a4d" vector-effect="non-scaling-stroke" d="
  M 79.00 72.96
  Q 77.71 74.29 77.86 76.14
  Q 77.99 77.77 77.99 77.87
  Q 77.51 120.69 78.25 163.50
  Q 78.56 181.38 77.69 271.94
  Q 77.61 280.38 77.55 288.82
  Q 77.51 294.61 77.19 305.68
  Q 76.67 323.72 77.34 341.76
  Q 77.47 345.36 77.32 349.76
  Q 77.18 353.75 77.21 357.75"
/>
<path stroke="#303335" vector-effect="non-scaling-stroke" d="
  M 77.21 357.75
  L 76.76 359.23
  Q 76.61 359.72 76.49 359.20
  Q 76.18 357.93 74.94 358.06
  Q 72.55 358.29 71.08 359.91
  Q 69.08 362.13 69.00 362.20
  Q 64.94 365.80 63.06 369.56
  Q 59.72 376.27 54.77 380.04
  Q 54.70 380.09 53.22 380.79
  Q 52.36 381.19 52.04 382.25"
/>
<path stroke="#3c4042" vector-effect="non-scaling-stroke" d="
  M 534.75 46.54
  Q 530.67 47.09 528.75 46.75
  Q 526.21 46.31 526.06 48.31
  A 1.34 1.12 29.7 0 0 526.39 49.20
  Q 527.69 50.72 529.36 51.77
  Q 531.55 53.16 532.44 54.07
  Q 537.34 59.08 539.44 62.56
  Q 541.20 65.49 545.25 65.75
  Q 555.90 66.43 561.85 66.30
  Q 563.26 66.26 564.58 66.66
  Q 565.93 67.07 567.29 67.43
  Q 569.21 67.94 571.41 67.93
  Q 605.06 67.88 638.71 68.22
  Q 638.81 68.22 644.29 68.16
  Q 648.66 68.11 652.97 68.64
  Q 660.96 69.61 663.58 69.70
  Q 679.17 70.21 694.76 69.98
  Q 709.86 69.75 714.75 69.75
  Q 765.37 69.75 816.00 69.75
  Q 824.94 69.75 839.25 70.71"
/>
<path stroke="#2a2c2e" vector-effect="non-scaling-stroke" d="
  M 839.25 70.71
  Q 795.96 71.35 738.75 71.00
  Q 695.32 70.73 629.00 71.25
  Q 584.51 71.60 522.50 70.75
  Q 519.57 70.71 508.46 71.26
  Q 508.40 71.26 499.09 72.19
  Q 494.74 72.63 489.25 72.50
  Q 459.66 71.82 414.75 72.16
  Q 404.30 72.24 394.75 72.17
  Q 310.50 71.52 226.25 71.98
  Q 155.50 72.37 84.75 72.00
  Q 83.49 71.99 80.04 73.50"
/>
<path stroke="#4c5053" vector-effect="non-scaling-stroke" d="
  M 80.04 73.50
  Q 79.62 73.05 79.00 72.96"
/>
<path stroke="#484c4f" vector-effect="non-scaling-stroke" d="
  M 79.79 1210.00
  Q 79.61 1211.01 78.76 1210.68
  Q 78.35 1210.52 78.05 1210.00
  Q 76.57 1207.41 76.50 1205.00
  Q 76.17 1193.28 76.49 1177.82
  Q 76.72 1167.17 76.68 1158.68
  Q 76.63 1149.09 76.68 1139.50
  Q 77.01 1070.24 77.00 1000.98
  Q 77.00 999.98 77.21 997.53
  Q 77.36 995.80 77.26 994.06
  Q 76.97 989.48 76.97 989.42
  Q 76.71 963.96 76.90 938.49
  Q 76.98 928.62 76.79 918.50
  Q 76.24 889.43 76.50 864.25
  Q 76.54 860.63 76.21 858.25"
/>
<path stroke="#4a4e51" vector-effect="non-scaling-stroke" d="
  M 76.21 858.25
  Q 76.64 780.75 77.13 703.25
  Q 77.45 653.00 77.08 602.76
  Q 77.01 593.07 77.12 582.76
  Q 77.61 539.38 77.12 496.01
  Q 77.01 485.49 77.06 476.00
  Q 77.42 416.87 77.21 357.75"
/>
<path stroke="#323537" vector-effect="non-scaling-stroke" d="
  M 76.21 858.25
  Q 75.40 858.27 75.38 857.53
  Q 75.36 856.62 75.36 856.59
  Q 75.05 854.68 74.84 852.74
  Q 74.62 850.83 72.93 850.88
  A 1.42 0.50 -47.0 0 0 72.11 851.31
  L 70.49 852.69
  A 0.94 0.67 33.7 0 1 69.61 852.72
  Q 65.90 850.97 61.81 850.71
  A 1.84 1.84 -24.6 0 1 60.91 850.41
  Q 57.11 847.86 52.55 848.15
  A 0.68 0.65 -11.7 0 1 51.88 847.73
  Q 50.91 845.11 51.25 842.00
  Q 51.51 839.64 51.04 836.75"
/>
<path stroke="#3b3f41" vector-effect="non-scaling-stroke" d="
  M 1546.00 1210.96
  Q 1488.83 1211.78 1415.50 1211.50
  Q 1343.10 1211.22 1075.83 1211.25
  Q 1074.27 1211.25 1071.68 1211.08
  Q 1069.59 1210.93 1067.50 1210.93
  Q 934.25 1210.93 801.00 1211.29"
/>
<path stroke="#333638" vector-effect="non-scaling-stroke" d="
  M 801.00 1211.29
  Q 772.75 1211.10 744.50 1211.38
  Q 733.55 1211.49 724.51 1211.46
  Q 641.51 1211.12 558.50 1211.22
  Q 506.00 1211.28 453.49 1210.84
  Q 443.49 1210.75 433.50 1210.78
  Q 362.50 1210.99 291.50 1210.30
  Q 269.78 1210.09 178.25 1210.25
  Q 158.29 1210.28 84.25 1209.54"
/>
<path stroke="#26282a" vector-effect="non-scaling-stroke" d="
  M 84.25 1209.54
  Q 83.64 1209.41 83.09 1209.58
  Q 82.78 1209.67 82.19 1210.24
  Q 81.05 1211.34 79.79 1210.00"
/>
<path stroke="#3e4144" vector-effect="non-scaling-stroke" d="
  M 79.79 1210.00
  Q 78.73 1208.80 78.99 1207.35
  Q 79.28 1205.74 79.29 1205.61
  Q 79.54 1199.67 79.46 1193.73
  Q 79.31 1182.70 79.31 1182.65
  Q 79.30 1128.70 79.21 1074.75
  Q 79.09 993.25 78.25 911.75
  Q 78.19 906.03 78.30 901.42
  Q 78.46 894.77 78.40 891.08
  Q 78.07 872.32 78.28 853.56
  Q 78.43 840.89 78.41 833.56
  Q 78.12 725.91 78.25 618.25
  Q 78.25 613.25 78.26 608.25
  Q 78.32 522.87 78.22 437.50
  Q 78.18 402.25 78.62 367.00
  Q 78.72 358.32 78.58 347.01
  Q 78.39 332.26 78.58 317.51
  Q 78.74 304.72 78.73 297.50
  Q 78.55 185.50 80.04 73.50"
/>
<path stroke="#2e3133" vector-effect="non-scaling-stroke" d="
  M 1037.50 70.96
  L 839.25 70.71"
/>
<path stroke="#3d4144" vector-effect="non-scaling-stroke" d="
  M 84.25 1209.54
  L 84.24 1209.87
  A 0.47 0.37 6.3 0 0 84.63 1210.25
  Q 89.82 1211.20 91.50 1211.25
  Q 129.76 1212.28 168.01 1211.49
  Q 179.41 1211.25 188.00 1211.31
  Q 220.38 1211.53 252.76 1212.07
  Q 263.21 1212.25 272.74 1212.26
  Q 366.37 1212.41 460.00 1212.78
  Q 506.87 1212.97 553.75 1213.04"
/>
<path stroke="#36393c" vector-effect="non-scaling-stroke" d="
  M 553.75 1213.04
  Q 552.91 1214.46 553.13 1215.95
  Q 553.24 1216.72 554.29 1217.85
  Q 555.08 1218.70 555.56 1219.78
  A 1.31 1.12 -49.9 0 1 555.57 1220.70
  Q 554.70 1223.04 555.06 1226.01
  A 3.08 3.07 -24.3 0 1 554.05 1228.67
  Q 551.00 1231.38 547.82 1232.08
  Q 544.91 1232.71 543.95 1233.07
  Q 541.22 1234.11 540.00 1234.00
  Q 535.85 1233.63 532.37 1235.67
  A 1.46 0.99 -88.5 0 0 531.83 1236.42
  Q 531.46 1237.53 530.20 1237.73
  Q 529.64 1237.81 529.87 1238.05
  A 0.60 0.38 -16.4 0 0 530.29 1238.17
  Q 531.64 1238.06 532.75 1238.71"
/>
<path stroke="#2b2d2f" vector-effect="non-scaling-stroke" d="
  M 1551.04 99.00
  Q 1550.36 89.13 1551.05 79.25
  Q 1551.23 76.58 1550.57 74.04
  A 0.73 0.70 -5.0 0 0 1549.93 73.52
  Q 1529.41 71.95 1514.75 71.75
  Q 1483.83 71.33 1430.25 71.40
  Q 1233.87 71.68 1037.50 70.96"
/>
<path stroke="#3d4043" vector-effect="non-scaling-stroke" d="
  M 1037.50 70.96
  Q 1042.46 70.74 1047.42 70.60
  Q 1048.60 70.56 1049.89 70.18
  Q 1051.10 69.81 1052.33 69.54
  Q 1053.83 69.21 1055.76 68.14
  Q 1057.93 66.92 1060.50 66.75
  Q 1061.62 66.67 1065.38 66.01
  Q 1067.37 65.65 1070.29 65.66
  Q 1073.66 65.67 1077.00 65.00
  Q 1080.81 64.24 1080.25 62.25
  Q 1079.61 59.95 1080.94 58.14
  Q 1081.23 57.73 1081.31 57.26
  Q 1081.71 54.88 1083.69 53.98
  Q 1086.15 52.86 1086.27 52.79
  Q 1089.83 50.52 1093.50 48.44
  Q 1093.83 48.25 1093.44 48.15
  L 1092.01 47.78
  Q 1091.26 47.58 1092.05 47.53
  Q 1098.21 47.17 1104.38 47.24
  Q 1104.80 47.24 1106.57 46.95
  Q 1107.71 46.76 1108.85 47.14
  Q 1109.22 47.26 1109.79 47.19
  L 1115.00 46.54"
/>
<path stroke="#4b5053" vector-effect="non-scaling-stroke" d="
  M 1227.00 1214.29
  Q 1191.84 1213.76 1180.75 1213.75
  Q 1083.87 1213.64 987.00 1213.51
  Q 978.94 1213.50 967.00 1213.28
  Q 946.08 1212.89 921.75 1213.00
  Q 858.64 1213.29 777.00 1212.96"
/>
<path stroke="#373a3d" vector-effect="non-scaling-stroke" d="
  M 1214.00 1239.46
  Q 1214.61 1238.89 1215.45 1238.89
  Q 1215.76 1238.89 1215.50 1238.69
  Q 1215.04 1238.35 1215.10 1237.81
  Q 1215.17 1237.14 1215.17 1237.06
  Q 1215.10 1235.42 1215.61 1233.93
  Q 1216.25 1232.05 1216.38 1230.95
  Q 1216.89 1226.57 1219.01 1221.01
  A 2.45 2.44 10.0 0 1 1221.27 1219.43
  Q 1224.05 1219.39 1224.07 1216.05
  A 1.00 0.88 75.8 0 1 1224.47 1215.27
  Q 1225.60 1214.54 1227.00 1214.29"
/>
<path stroke="#464a4e" vector-effect="non-scaling-stroke" d="
  M 1227.00 1214.29
  Q 1445.56 1214.56 1521.50 1215.00
  Q 1535.42 1215.08 1546.72 1211.82
  A 0.56 0.42 -19.1 0 0 1547.14 1211.20
  Q 1546.93 1210.73 1546.00 1210.96"
/>
<path stroke="#27292b" vector-effect="non-scaling-stroke" d="
  M 1546.00 1210.96
  L 1548.70 1210.55
  A 0.65 0.61 86.8 0 0 1549.21 1209.94
  Q 1550.52 1174.11 1550.71 1138.25
  Q 1551.34 1019.25 1550.88 900.25
  Q 1550.84 888.75 1550.85 877.25
  Q 1551.15 642.87 1550.77 408.49
  Q 1550.75 398.41 1550.76 388.50
  Q 1550.93 243.75 1551.04 99.00"
/>
<path stroke="#35383b" vector-effect="non-scaling-stroke" d="
  M 1551.04 99.00
  Q 1551.75 99.51 1552.21 99.14
  Q 1552.48 98.91 1552.55 98.26
  Q 1553.43 89.52 1553.94 80.76
  Q 1554.21 76.06 1552.45 71.77
  Q 1551.13 68.56 1547.94 68.06
  Q 1541.73 67.09 1534.33 67.13
  Q 1528.38 67.17 1528.30 67.16
  Q 1434.88 66.43 1361.31 66.94
  Q 1347.53 67.03 1336.59 66.12
  Q 1336.49 66.11 1333.92 66.07
  Q 1331.72 66.04 1329.75 65.00
  Q 1328.71 64.45 1325.29 64.34
  Q 1325.22 64.34 1322.84 64.46
  Q 1320.83 64.57 1318.95 63.72
  A 1.00 0.61 -89.9 0 1 1318.52 63.01
  L 1317.68 58.21
  A 1.40 0.44 74.3 0 1 1317.71 57.29
  Q 1318.58 55.57 1319.72 56.58
  A 1.75 0.92 55.5 0 0 1320.56 57.02
  Q 1322.15 57.22 1323.53 56.57
  Q 1325.44 55.69 1325.56 55.64
  Q 1330.38 53.76 1326.32 50.25
  A 1.90 1.44 -13.7 0 0 1325.44 49.87
  Q 1324.28 49.71 1323.15 49.37
  Q 1322.70 49.24 1322.49 48.93
  Q 1322.08 48.33 1322.48 48.02
  Q 1322.78 47.78 1322.45 47.71
  Q 1319.23 46.96 1322.50 46.04"
/>
<path stroke="#52585b" vector-effect="non-scaling-stroke" d="
  M 801.00 1211.29
  L 781.00 1211.51
  Q 780.57 1211.51 780.06 1211.72
  Q 779.14 1212.09 777.75 1212.00
  Q 776.27 1211.91 777.00 1212.96"
/>
<path stroke="#43474a" vector-effect="non-scaling-stroke" d="
  M 777.00 1212.96
  Q 761.51 1213.60 746.00 1213.27
  Q 726.13 1212.85 706.25 1212.88
  Q 630.00 1212.97 553.75 1213.04"
/>
</g>
<path fill="#1c1d1e" d="
  M 1314.94 1245.39
  Q 1213.72 1245.64 1112.50 1245.57
  Q 967.50 1245.46 822.50 1245.96
  Q 812.35 1246.00 802.49 1246.00
  Q 619.87 1245.96 437.25 1246.13
  Q 281.62 1246.27 126.00 1245.64
  Q 94.25 1245.51 62.50 1245.45
  Q 53.34 1245.43 44.30 1243.94
  A 0.97 0.95 -85.7 0 1 43.50 1243.00
  Q 43.28 1225.87 43.22 1208.75
  Q 41.89 839.73 42.25 539.75
  Q 42.29 510.27 43.06 468.25
  Q 43.26 457.35 43.32 448.25
  Q 43.60 402.53 43.53 356.81
  Q 43.52 348.90 43.52 341.00
  Q 43.50 193.67 44.43 46.33
  Q 44.43 45.83 43.87 42.88
  Q 43.48 40.78 44.76 38.95
  A 1.07 0.97 14.9 0 1 45.56 38.54
  Q 80.38 36.96 115.24 36.96
  Q 125.12 36.97 135.25 36.83
  Q 161.13 36.49 187.00 37.07
  Q 207.25 37.53 227.50 37.95
  Q 271.62 38.86 315.75 38.45
  Q 323.25 38.38 330.75 38.39
  Q 473.91 38.60 617.06 38.45
  Q 1044.91 37.99 1472.75 39.22
  Q 1482.10 39.25 1492.75 39.17
  Q 1537.82 38.83 1582.66 39.06
  A 0.97 0.97 88.4 0 1 1583.63 39.98
  Q 1584.93 62.39 1584.94 82.81
  Q 1585.00 260.00 1585.14 437.19
  Q 1585.18 491.19 1585.07 545.19
  Q 1584.42 881.26 1584.50 1217.33
  Q 1584.50 1219.54 1584.79 1226.66
  Q 1585.02 1232.31 1584.50 1236.00
  Q 1583.85 1240.60 1583.98 1244.56
  Q 1584.05 1246.62 1581.98 1246.51
  Q 1574.51 1246.11 1567.25 1246.14
  Q 1537.99 1246.25 1508.75 1245.16
  Q 1498.77 1244.79 1488.76 1245.17
  Q 1464.76 1246.10 1440.75 1246.19
  Q 1387.68 1246.37 1334.63 1244.78
  Q 1333.51 1244.75 1332.39 1244.99
  Q 1331.66 1245.14 1330.93 1245.29
  Q 1330.20 1245.44 1329.44 1245.43
  Q 1322.19 1245.37 1314.94 1245.39
  Z
  M 52.04 382.25
  Q 52.21 446.13 51.17 510.00
  Q 51.00 520.47 51.00 530.00
  Q 50.97 683.37 51.04 836.75
  Q 51.17 929.75 50.79 1022.75
  Q 50.75 1032.20 50.77 1042.76
  Q 50.90 1110.04 50.17 1177.31
  Q 50.07 1186.81 50.09 1197.30
  Q 50.13 1217.71 49.99 1238.80
  A 0.95 0.94 89.7 0 0 50.94 1239.75
  Q 116.28 1239.08 182.00 1239.22
  Q 192.32 1239.25 202.01 1239.16
  Q 256.98 1238.68 267.50 1238.75
  Q 299.23 1238.96 315.26 1238.86
  Q 334.76 1238.75 335.26 1238.75
  Q 434.00 1238.78 532.75 1238.71
  Q 620.62 1239.13 708.50 1239.25
  Q 711.67 1239.25 718.50 1239.25
  Q 863.31 1239.16 1214.00 1239.46
  Q 1228.38 1239.82 1242.76 1239.67
  Q 1256.96 1239.52 1262.76 1239.54
  Q 1291.29 1239.65 1319.83 1239.74
  Q 1319.89 1239.74 1324.16 1239.62
  Q 1327.58 1239.52 1332.00 1240.00
  Q 1335.99 1240.43 1341.50 1240.23
  Q 1349.95 1239.93 1350.01 1239.92
  Q 1403.16 1239.00 1456.33 1239.21
  Q 1463.89 1239.24 1473.16 1239.55
  Q 1481.58 1239.82 1490.00 1240.03
  Q 1499.09 1240.25 1510.00 1239.94
  Q 1543.48 1238.99 1578.41 1239.00
  A 1.29 1.29 -89.5 0 0 1579.70 1237.73
  Q 1580.00 1219.72 1579.75 1201.00
  Q 1579.58 1188.48 1580.06 1141.75
  Q 1580.38 1110.25 1579.92 1078.75
  Q 1579.78 1069.76 1579.94 1058.76
  Q 1580.08 1048.26 1580.01 1037.75
  Q 1579.80 1005.40 1579.90 973.05
  Q 1579.93 963.22 1579.86 953.06
  Q 1579.55 902.94 1580.16 852.83
  Q 1580.24 845.70 1580.04 838.17
  Q 1579.76 828.09 1579.75 823.50
  Q 1579.58 745.83 1579.50 481.25
  Q 1579.48 428.85 1579.67 400.50
  Q 1579.74 390.34 1579.66 380.51
  Q 1579.37 344.63 1579.66 308.75
  Q 1579.75 297.87 1579.72 288.75
  Q 1579.37 185.30 1579.49 81.85
  Q 1579.49 77.99 1579.77 64.16
  Q 1579.94 55.33 1579.75 46.48
  A 0.75 0.75 89.2 0 0 1579.00 45.75
  L 1322.50 46.04
  L 1115.00 46.54
  Q 1053.13 46.47 991.26 46.50
  Q 991.17 46.50 982.26 46.66
  Q 976.48 46.77 968.00 46.50
  Q 956.19 46.12 912.25 46.72
  Q 910.47 46.74 907.26 46.53
  Q 904.76 46.37 902.25 46.44
  Q 888.88 46.80 875.50 46.50
  Q 861.04 46.18 825.25 46.62
  Q 814.97 46.74 805.25 46.70
  Q 731.13 46.34 623.94 46.69
  Q 607.65 46.74 534.75 46.54
  Q 437.37 46.47 340.00 46.50
  Q 310.38 46.51 296.75 46.79
  Q 287.16 46.45 277.57 46.55
  Q 263.32 46.69 258.42 46.62
  Q 212.71 46.02 167.00 45.39
  Q 157.73 45.26 147.00 45.25
  Q 108.75 45.23 70.50 44.64
  Q 61.75 44.50 51.50 44.50
  A 1.02 1.02 89.7 0 0 50.48 45.53
  Q 51.48 138.37 51.62 229.75
  Q 51.73 306.00 52.04 382.25
  Z"
/>
<path fill="#2c2e30" d="
  M 296.75 46.79
  L 284.20 64.97
  Q 283.14 66.50 281.16 66.50
  Q 231.12 66.52 181.75 66.00
  Q 149.76 65.66 106.69 66.83
  Q 99.94 67.02 94.82 67.39
  Q 85.84 68.06 83.00 68.75
  Q 80.13 69.45 79.00 72.96
  Q 77.71 74.29 77.86 76.14
  Q 77.99 77.77 77.99 77.87
  Q 77.51 120.69 78.25 163.50
  Q 78.56 181.38 77.69 271.94
  Q 77.61 280.38 77.55 288.82
  Q 77.51 294.61 77.19 305.68
  Q 76.67 323.72 77.34 341.76
  Q 77.47 345.36 77.32 349.76
  Q 77.18 353.75 77.21 357.75
  L 76.76 359.23
  Q 76.61 359.72 76.49 359.20
  Q 76.18 357.93 74.94 358.06
  Q 72.55 358.29 71.08 359.91
  Q 69.08 362.13 69.00 362.20
  Q 64.94 365.80 63.06 369.56
  Q 59.72 376.27 54.77 380.04
  Q 54.70 380.09 53.22 380.79
  Q 52.36 381.19 52.04 382.25
  Q 51.73 306.00 51.62 229.75
  Q 51.48 138.37 50.48 45.53
  A 1.02 1.02 89.7 0 1 51.50 44.50
  Q 61.75 44.50 70.50 44.64
  Q 108.75 45.23 147.00 45.25
  Q 157.73 45.26 167.00 45.39
  Q 212.71 46.02 258.42 46.62
  Q 263.32 46.69 277.57 46.55
  Q 287.16 46.45 296.75 46.79
  Z"
/>
<path fill="#313437" d="
  M 1214.00 1239.46
  Q 1214.61 1238.89 1215.45 1238.89
  Q 1215.76 1238.89 1215.50 1238.69
  Q 1215.04 1238.35 1215.10 1237.81
  Q 1215.17 1237.14 1215.17 1237.06
  Q 1215.10 1235.42 1215.61 1233.93
  Q 1216.25 1232.05 1216.38 1230.95
  Q 1216.89 1226.57 1219.01 1221.01
  A 2.45 2.44 10.0 0 1 1221.27 1219.43
  Q 1224.05 1219.39 1224.07 1216.05
  A 1.00 0.88 75.8 0 1 1224.47 1215.27
  Q 1225.60 1214.54 1227.00 1214.29
  Q 1445.56 1214.56 1521.50 1215.00
  Q 1535.42 1215.08 1546.72 1211.82
  A 0.56 0.42 -19.1 0 0 1547.14 1211.20
  Q 1546.93 1210.73 1546.00 1210.96
  L 1548.70 1210.55
  A 0.65 0.61 86.8 0 0 1549.21 1209.94
  Q 1550.52 1174.11 1550.71 1138.25
  Q 1551.34 1019.25 1550.88 900.25
  Q 1550.84 888.75 1550.85 877.25
  Q 1551.15 642.87 1550.77 408.49
  Q 1550.75 398.41 1550.76 388.50
  Q 1550.93 243.75 1551.04 99.00
  Q 1551.75 99.51 1552.21 99.14
  Q 1552.48 98.91 1552.55 98.26
  Q 1553.43 89.52 1553.94 80.76
  Q 1554.21 76.06 1552.45 71.77
  Q 1551.13 68.56 1547.94 68.06
  Q 1541.73 67.09 1534.33 67.13
  Q 1528.38 67.17 1528.30 67.16
  Q 1434.88 66.43 1361.31 66.94
  Q 1347.53 67.03 1336.59 66.12
  Q 1336.49 66.11 1333.92 66.07
  Q 1331.72 66.04 1329.75 65.00
  Q 1328.71 64.45 1325.29 64.34
  Q 1325.22 64.34 1322.84 64.46
  Q 1320.83 64.57 1318.95 63.72
  A 1.00 0.61 -89.9 0 1 1318.52 63.01
  L 1317.68 58.21
  A 1.40 0.44 74.3 0 1 1317.71 57.29
  Q 1318.58 55.57 1319.72 56.58
  A 1.75 0.92 55.5 0 0 1320.56 57.02
  Q 1322.15 57.22 1323.53 56.57
  Q 1325.44 55.69 1325.56 55.64
  Q 1330.38 53.76 1326.32 50.25
  A 1.90 1.44 -13.7 0 0 1325.44 49.87
  Q 1324.28 49.71 1323.15 49.37
  Q 1322.70 49.24 1322.49 48.93
  Q 1322.08 48.33 1322.48 48.02
  Q 1322.78 47.78 1322.45 47.71
  Q 1319.23 46.96 1322.50 46.04
  L 1579.00 45.75
  A 0.75 0.75 89.2 0 1 1579.75 46.48
  Q 1579.94 55.33 1579.77 64.16
  Q 1579.49 77.99 1579.49 81.85
  Q 1579.37 185.30 1579.72 288.75
  Q 1579.75 297.87 1579.66 308.75
  Q 1579.37 344.63 1579.66 380.51
  Q 1579.74 390.34 1579.67 400.50
  Q 1579.48 428.85 1579.50 481.25
  Q 1579.58 745.83 1579.75 823.50
  Q 1579.76 828.09 1580.04 838.17
  Q 1580.24 845.70 1580.16 852.83
  Q 1579.55 902.94 1579.86 953.06
  Q 1579.93 963.22 1579.90 973.05
  Q 1579.80 1005.40 1580.01 1037.75
  Q 1580.08 1048.26 1579.94 1058.76
  Q 1579.78 1069.76 1579.92 1078.75
  Q 1580.38 1110.25 1580.06 1141.75
  Q 1579.58 1188.48 1579.75 1201.00
  Q 1580.00 1219.72 1579.70 1237.73
  A 1.29 1.29 -89.5 0 1 1578.41 1239.00
  Q 1543.48 1238.99 1510.00 1239.94
  Q 1499.09 1240.25 1490.00 1240.03
  Q 1481.58 1239.82 1473.16 1239.55
  Q 1463.89 1239.24 1456.33 1239.21
  Q 1403.16 1239.00 1350.01 1239.92
  Q 1349.95 1239.93 1341.50 1240.23
  Q 1335.99 1240.43 1332.00 1240.00
  Q 1327.58 1239.52 1324.16 1239.62
  Q 1319.89 1239.74 1319.83 1239.74
  Q 1291.29 1239.65 1262.76 1239.54
  Q 1256.96 1239.52 1242.76 1239.67
  Q 1228.38 1239.82 1214.00 1239.46
  Z"
/>
<path fill="#393c3f" d="
  M 1322.50 46.04
  Q 1319.23 46.96 1322.45 47.71
  Q 1322.78 47.78 1322.48 48.02
  Q 1322.08 48.33 1322.49 48.93
  Q 1322.70 49.24 1323.15 49.37
  Q 1324.28 49.71 1325.44 49.87
  A 1.90 1.44 -13.7 0 1 1326.32 50.25
  Q 1330.38 53.76 1325.56 55.64
  Q 1325.44 55.69 1323.53 56.57
  Q 1322.15 57.22 1320.56 57.02
  A 1.75 0.92 55.5 0 1 1319.72 56.58
  Q 1318.58 55.57 1317.71 57.29
  A 1.40 0.44 74.3 0 0 1317.68 58.21
  L 1318.52 63.01
  A 1.00 0.61 -89.9 0 0 1318.95 63.72
  Q 1320.83 64.57 1322.84 64.46
  Q 1325.22 64.34 1325.29 64.34
  Q 1328.71 64.45 1329.75 65.00
  Q 1331.72 66.04 1333.92 66.07
  Q 1336.49 66.11 1336.59 66.12
  Q 1347.53 67.03 1361.31 66.94
  Q 1434.88 66.43 1528.30 67.16
  Q 1528.38 67.17 1534.33 67.13
  Q 1541.73 67.09 1547.94 68.06
  Q 1551.13 68.56 1552.45 71.77
  Q 1554.21 76.06 1553.94 80.76
  Q 1553.43 89.52 1552.55 98.26
  Q 1552.48 98.91 1552.21 99.14
  Q 1551.75 99.51 1551.04 99.00
  Q 1550.36 89.13 1551.05 79.25
  Q 1551.23 76.58 1550.57 74.04
  A 0.73 0.70 -5.0 0 0 1549.93 73.52
  Q 1529.41 71.95 1514.75 71.75
  Q 1483.83 71.33 1430.25 71.40
  Q 1233.87 71.68 1037.50 70.96
  Q 1042.46 70.74 1047.42 70.60
  Q 1048.60 70.56 1049.89 70.18
  Q 1051.10 69.81 1052.33 69.54
  Q 1053.83 69.21 1055.76 68.14
  Q 1057.93 66.92 1060.50 66.75
  Q 1061.62 66.67 1065.38 66.01
  Q 1067.37 65.65 1070.29 65.66
  Q 1073.66 65.67 1077.00 65.00
  Q 1080.81 64.24 1080.25 62.25
  Q 1079.61 59.95 1080.94 58.14
  Q 1081.23 57.73 1081.31 57.26
  Q 1081.71 54.88 1083.69 53.98
  Q 1086.15 52.86 1086.27 52.79
  Q 1089.83 50.52 1093.50 48.44
  Q 1093.83 48.25 1093.44 48.15
  L 1092.01 47.78
  Q 1091.26 47.58 1092.05 47.53
  Q 1098.21 47.17 1104.38 47.24
  Q 1104.80 47.24 1106.57 46.95
  Q 1107.71 46.76 1108.85 47.14
  Q 1109.22 47.26 1109.79 47.19
  L 1115.00 46.54
  L 1322.50 46.04
  Z"
/>
<path fill="#373b3d" d="
  M 534.75 46.54
  Q 530.67 47.09 528.75 46.75
  Q 526.21 46.31 526.06 48.31
  A 1.34 1.12 29.7 0 0 526.39 49.20
  Q 527.69 50.72 529.36 51.77
  Q 531.55 53.16 532.44 54.07
  Q 537.34 59.08 539.44 62.56
  Q 541.20 65.49 545.25 65.75
  Q 555.90 66.43 561.85 66.30
  Q 563.26 66.26 564.58 66.66
  Q 565.93 67.07 567.29 67.43
  Q 569.21 67.94 571.41 67.93
  Q 605.06 67.88 638.71 68.22
  Q 638.81 68.22 644.29 68.16
  Q 648.66 68.11 652.97 68.64
  Q 660.96 69.61 663.58 69.70
  Q 679.17 70.21 694.76 69.98
  Q 709.86 69.75 714.75 69.75
  Q 765.37 69.75 816.00 69.75
  Q 824.94 69.75 839.25 70.71
  Q 795.96 71.35 738.75 71.00
  Q 695.32 70.73 629.00 71.25
  Q 584.51 71.60 522.50 70.75
  Q 519.57 70.71 508.46 71.26
  Q 508.40 71.26 499.09 72.19
  Q 494.74 72.63 489.25 72.50
  Q 459.66 71.82 414.75 72.16
  Q 404.30 72.24 394.75 72.17
  Q 310.50 71.52 226.25 71.98
  Q 155.50 72.37 84.75 72.00
  Q 83.49 71.99 80.04 73.50
  Q 79.62 73.05 79.00 72.96
  Q 80.13 69.45 83.00 68.75
  Q 85.84 68.06 94.82 67.39
  Q 99.94 67.02 106.69 66.83
  Q 149.76 65.66 181.75 66.00
  Q 231.12 66.52 281.16 66.50
  Q 283.14 66.50 284.20 64.97
  L 296.75 46.79
  Q 310.38 46.51 340.00 46.50
  Q 437.37 46.47 534.75 46.54
  Z"
/>
<path fill="#404447" d="
  M 534.75 46.54
  Q 607.65 46.74 623.94 46.69
  Q 731.13 46.34 805.25 46.70
  Q 814.97 46.74 825.25 46.62
  Q 861.04 46.18 875.50 46.50
  Q 888.88 46.80 902.25 46.44
  Q 904.76 46.37 907.26 46.53
  Q 910.47 46.74 912.25 46.72
  Q 956.19 46.12 968.00 46.50
  Q 976.48 46.77 982.26 46.66
  Q 991.17 46.50 991.26 46.50
  Q 1053.13 46.47 1115.00 46.54
  L 1109.79 47.19
  Q 1109.22 47.26 1108.85 47.14
  Q 1107.71 46.76 1106.57 46.95
  Q 1104.80 47.24 1104.38 47.24
  Q 1098.21 47.17 1092.05 47.53
  Q 1091.26 47.58 1092.01 47.78
  L 1093.44 48.15
  Q 1093.83 48.25 1093.50 48.44
  Q 1089.83 50.52 1086.27 52.79
  Q 1086.15 52.86 1083.69 53.98
  Q 1081.71 54.88 1081.31 57.26
  Q 1081.23 57.73 1080.94 58.14
  Q 1079.61 59.95 1080.25 62.25
  Q 1080.81 64.24 1077.00 65.00
  Q 1073.66 65.67 1070.29 65.66
  Q 1067.37 65.65 1065.38 66.01
  Q 1061.62 66.67 1060.50 66.75
  Q 1057.93 66.92 1055.76 68.14
  Q 1053.83 69.21 1052.33 69.54
  Q 1051.10 69.81 1049.89 70.18
  Q 1048.60 70.56 1047.42 70.60
  Q 1042.46 70.74 1037.50 70.96
  L 839.25 70.71
  Q 824.94 69.75 816.00 69.75
  Q 765.37 69.75 714.75 69.75
  Q 709.86 69.75 694.76 69.98
  Q 679.17 70.21 663.58 69.70
  Q 660.96 69.61 652.97 68.64
  Q 648.66 68.11 644.29 68.16
  Q 638.81 68.22 638.71 68.22
  Q 605.06 67.88 571.41 67.93
  Q 569.21 67.94 567.29 67.43
  Q 565.93 67.07 564.58 66.66
  Q 563.26 66.26 561.85 66.30
  Q 555.90 66.43 545.25 65.75
  Q 541.20 65.49 539.44 62.56
  Q 537.34 59.08 532.44 54.07
  Q 531.55 53.16 529.36 51.77
  Q 527.69 50.72 526.39 49.20
  A 1.34 1.12 29.7 0 1 526.06 48.31
  Q 526.21 46.31 528.75 46.75
  Q 530.67 47.09 534.75 46.54
  Z"
/>
<path fill="#1c1d1e" d="
  M 839.25 70.71
  L 1037.50 70.96
  Q 1233.87 71.68 1430.25 71.40
  Q 1483.83 71.33 1514.75 71.75
  Q 1529.41 71.95 1549.93 73.52
  A 0.73 0.70 -5.0 0 1 1550.57 74.04
  Q 1551.23 76.58 1551.05 79.25
  Q 1550.36 89.13 1551.04 99.00
  Q 1550.93 243.75 1550.76 388.50
  Q 1550.75 398.41 1550.77 408.49
  Q 1551.15 642.87 1550.85 877.25
  Q 1550.84 888.75 1550.88 900.25
  Q 1551.34 1019.25 1550.71 1138.25
  Q 1550.52 1174.11 1549.21 1209.94
  A 0.65 0.61 86.8 0 1 1548.70 1210.55
  L 1546.00 1210.96
  Q 1488.83 1211.78 1415.50 1211.50
  Q 1343.10 1211.22 1075.83 1211.25
  Q 1074.27 1211.25 1071.68 1211.08
  Q 1069.59 1210.93 1067.50 1210.93
  Q 934.25 1210.93 801.00 1211.29
  Q 772.75 1211.10 744.50 1211.38
  Q 733.55 1211.49 724.51 1211.46
  Q 641.51 1211.12 558.50 1211.22
  Q 506.00 1211.28 453.49 1210.84
  Q 443.49 1210.75 433.50 1210.78
  Q 362.50 1210.99 291.50 1210.30
  Q 269.78 1210.09 178.25 1210.25
  Q 158.29 1210.28 84.25 1209.54
  Q 83.64 1209.41 83.09 1209.58
  Q 82.78 1209.67 82.19 1210.24
  Q 81.05 1211.34 79.79 1210.00
  Q 78.73 1208.80 78.99 1207.35
  Q 79.28 1205.74 79.29 1205.61
  Q 79.54 1199.67 79.46 1193.73
  Q 79.31 1182.70 79.31 1182.65
  Q 79.30 1128.70 79.21 1074.75
  Q 79.09 993.25 78.25 911.75
  Q 78.19 906.03 78.30 901.42
  Q 78.46 894.77 78.40 891.08
  Q 78.07 872.32 78.28 853.56
  Q 78.43 840.89 78.41 833.56
  Q 78.12 725.91 78.25 618.25
  Q 78.25 613.25 78.26 608.25
  Q 78.32 522.87 78.22 437.50
  Q 78.18 402.25 78.62 367.00
  Q 78.72 358.32 78.58 347.01
  Q 78.39 332.26 78.58 317.51
  Q 78.74 304.72 78.73 297.50
  Q 78.55 185.50 80.04 73.50
  Q 83.49 71.99 84.75 72.00
  Q 155.50 72.37 226.25 71.98
  Q 310.50 71.52 394.75 72.17
  Q 404.30 72.24 414.75 72.16
  Q 459.66 71.82 489.25 72.50
  Q 494.74 72.63 499.09 72.19
  Q 508.40 71.26 508.46 71.26
  Q 519.57 70.71 522.50 70.75
  Q 584.51 71.60 629.00 71.25
  Q 695.32 70.73 738.75 71.00
  Q 795.96 71.35 839.25 70.71
  Z
  M 479.56 77.18
  Q 457.41 77.69 435.25 77.41
  Q 423.53 77.27 415.25 77.34
  Q 350.18 77.91 299.00 77.75
  Q 172.12 77.36 82.81 77.56
  A 0.49 0.49 89.4 0 0 82.32 78.06
  Q 83.19 121.29 83.25 130.75
  Q 83.51 171.31 83.81 333.94
  Q 84.05 464.09 83.85 521.56
  Q 83.81 533.43 83.81 541.57
  Q 83.75 727.25 83.69 912.93
  Q 83.69 922.79 83.65 932.93
  Q 83.15 1068.84 83.00 1204.77
  A 0.73 0.73 -0.4 0 0 83.74 1205.50
  Q 171.01 1203.89 258.50 1205.55
  Q 268.97 1205.75 278.50 1205.72
  Q 478.88 1205.21 679.25 1205.62
  Q 807.38 1205.88 935.50 1206.25
  Q 937.69 1206.25 941.25 1206.25
  Q 1229.33 1206.09 1445.75 1205.53
  Q 1455.49 1205.50 1465.74 1205.58
  Q 1500.87 1205.86 1535.99 1205.99
  Q 1537.54 1206.00 1540.49 1205.71
  Q 1542.53 1205.52 1544.99 1205.49
  A 1.21 1.21 88.8 0 0 1546.19 1204.24
  Q 1544.90 1160.48 1544.89 1116.75
  Q 1544.75 612.21 1544.75 107.67
  Q 1544.75 105.31 1545.35 98.37
  Q 1545.75 93.70 1545.35 88.99
  Q 1544.84 83.01 1544.73 75.89
  A 0.63 0.62 87.0 0 0 1544.05 75.27
  Q 1529.77 76.43 1515.25 76.57
  Q 1478.88 76.93 1442.50 76.95
  Q 1062.60 77.11 682.70 77.43
  Q 673.45 77.44 662.69 77.37
  Q 596.22 76.98 529.75 77.50
  Q 521.76 77.56 502.15 76.94
  Q 496.48 76.76 490.86 76.90
  Q 485.21 77.05 479.56 77.18
  Z"
/>
<path fill="#606569" d="
  M 79.00 72.96
  Q 79.62 73.05 80.04 73.50
  Q 78.55 185.50 78.73 297.50
  Q 78.74 304.72 78.58 317.51
  Q 78.39 332.26 78.58 347.01
  Q 78.72 358.32 78.62 367.00
  Q 78.18 402.25 78.22 437.50
  Q 78.32 522.87 78.26 608.25
  Q 78.25 613.25 78.25 618.25
  Q 78.12 725.91 78.41 833.56
  Q 78.43 840.89 78.28 853.56
  Q 78.07 872.32 78.40 891.08
  Q 78.46 894.77 78.30 901.42
  Q 78.19 906.03 78.25 911.75
  Q 79.09 993.25 79.21 1074.75
  Q 79.30 1128.70 79.31 1182.65
  Q 79.31 1182.70 79.46 1193.73
  Q 79.54 1199.67 79.29 1205.61
  Q 79.28 1205.74 78.99 1207.35
  Q 78.73 1208.80 79.79 1210.00
  Q 79.61 1211.01 78.76 1210.68
  Q 78.35 1210.52 78.05 1210.00
  Q 76.57 1207.41 76.50 1205.00
  Q 76.17 1193.28 76.49 1177.82
  Q 76.72 1167.17 76.68 1158.68
  Q 76.63 1149.09 76.68 1139.50
  Q 77.01 1070.24 77.00 1000.98
  Q 77.00 999.98 77.21 997.53
  Q 77.36 995.80 77.26 994.06
  Q 76.97 989.48 76.97 989.42
  Q 76.71 963.96 76.90 938.49
  Q 76.98 928.62 76.79 918.50
  Q 76.24 889.43 76.50 864.25
  Q 76.54 860.63 76.21 858.25
  Q 76.64 780.75 77.13 703.25
  Q 77.45 653.00 77.08 602.76
  Q 77.01 593.07 77.12 582.76
  Q 77.61 539.38 77.12 496.01
  Q 77.01 485.49 77.06 476.00
  Q 77.42 416.87 77.21 357.75
  Q 77.18 353.75 77.32 349.76
  Q 77.47 345.36 77.34 341.76
  Q 76.67 323.72 77.19 305.68
  Q 77.51 294.61 77.55 288.82
  Q 77.61 280.38 77.69 271.94
  Q 78.56 181.38 78.25 163.50
  Q 77.51 120.69 77.99 77.87
  Q 77.99 77.77 77.86 76.14
  Q 77.71 74.29 79.00 72.96
  Z"
/>
<path fill="#333739" d="
  M 77.21 357.75
  Q 77.42 416.87 77.06 476.00
  Q 77.01 485.49 77.12 496.01
  Q 77.61 539.38 77.12 582.76
  Q 77.01 593.07 77.08 602.76
  Q 77.45 653.00 77.13 703.25
  Q 76.64 780.75 76.21 858.25
  Q 75.40 858.27 75.38 857.53
  Q 75.36 856.62 75.36 856.59
  Q 75.05 854.68 74.84 852.74
  Q 74.62 850.83 72.93 850.88
  A 1.42 0.50 -47.0 0 0 72.11 851.31
  L 70.49 852.69
  A 0.94 0.67 33.7 0 1 69.61 852.72
  Q 65.90 850.97 61.81 850.71
  A 1.84 1.84 -24.6 0 1 60.91 850.41
  Q 57.11 847.86 52.55 848.15
  A 0.68 0.65 -11.7 0 1 51.88 847.73
  Q 50.91 845.11 51.25 842.00
  Q 51.51 839.64 51.04 836.75
  Q 50.97 683.37 51.00 530.00
  Q 51.00 520.47 51.17 510.00
  Q 52.21 446.13 52.04 382.25
  Q 52.36 381.19 53.22 380.79
  Q 54.70 380.09 54.77 380.04
  Q 59.72 376.27 63.06 369.56
  Q 64.94 365.80 69.00 362.20
  Q 69.08 362.13 71.08 359.91
  Q 72.55 358.29 74.94 358.06
  Q 76.18 357.93 76.49 359.20
  Q 76.61 359.72 76.76 359.23
  L 77.21 357.75
  Z"
/>
<path fill="#303335" d="
  M 51.04 836.75
  Q 51.51 839.64 51.25 842.00
  Q 50.91 845.11 51.88 847.73
  A 0.68 0.65 -11.7 0 0 52.55 848.15
  Q 57.11 847.86 60.91 850.41
  A 1.84 1.84 -26.6 0 0 61.81 850.71
  Q 65.90 850.97 69.61 852.72
  A 0.94 0.67 33.7 0 0 70.49 852.69
  L 72.11 851.31
  A 1.42 0.50 -47.0 0 1 72.93 850.88
  Q 74.62 850.83 74.84 852.74
  Q 75.05 854.68 75.36 856.59
  Q 75.36 856.62 75.38 857.53
  Q 75.40 858.27 76.21 858.25
  Q 76.54 860.63 76.50 864.25
  Q 76.24 889.43 76.79 918.50
  Q 76.98 928.62 76.90 938.49
  Q 76.71 963.96 76.97 989.42
  Q 76.97 989.48 77.26 994.06
  Q 77.36 995.80 77.21 997.53
  Q 77.00 999.98 77.00 1000.98
  Q 77.01 1070.24 76.68 1139.50
  Q 76.63 1149.09 76.68 1158.68
  Q 76.72 1167.17 76.49 1177.82
  Q 76.17 1193.28 76.50 1205.00
  Q 76.57 1207.41 78.05 1210.00
  Q 78.35 1210.52 78.76 1210.68
  Q 79.61 1211.01 79.79 1210.00
  Q 81.05 1211.34 82.19 1210.24
  Q 82.78 1209.67 83.09 1209.58
  Q 83.64 1209.41 84.25 1209.54
  L 84.24 1209.87
  A 0.47 0.37 6.3 0 0 84.63 1210.25
  Q 89.82 1211.20 91.50 1211.25
  Q 129.76 1212.28 168.01 1211.49
  Q 179.41 1211.25 188.00 1211.31
  Q 220.38 1211.53 252.76 1212.07
  Q 263.21 1212.25 272.74 1212.26
  Q 366.37 1212.41 460.00 1212.78
  Q 506.87 1212.97 553.75 1213.04
  Q 552.91 1214.46 553.13 1215.95
  Q 553.24 1216.72 554.29 1217.85
  Q 555.08 1218.70 555.56 1219.78
  A 1.31 1.12 -49.9 0 1 555.57 1220.70
  Q 554.70 1223.04 555.06 1226.01
  A 3.08 3.07 -24.3 0 1 554.05 1228.67
  Q 551.00 1231.38 547.82 1232.08
  Q 544.91 1232.71 543.95 1233.07
  Q 541.22 1234.11 540.00 1234.00
  Q 535.85 1233.63 532.37 1235.67
  A 1.46 0.99 -88.5 0 0 531.83 1236.42
  Q 531.46 1237.53 530.20 1237.73
  Q 529.64 1237.81 529.87 1238.05
  A 0.60 0.38 -16.4 0 0 530.29 1238.17
  Q 531.64 1238.06 532.75 1238.71
  Q 434.00 1238.78 335.26 1238.75
  Q 334.76 1238.75 315.26 1238.86
  Q 299.23 1238.96 267.50 1238.75
  Q 256.98 1238.68 202.01 1239.16
  Q 192.32 1239.25 182.00 1239.22
  Q 116.28 1239.08 50.94 1239.75
  A 0.95 0.94 89.7 0 1 49.99 1238.80
  Q 50.13 1217.71 50.09 1197.30
  Q 50.07 1186.81 50.17 1177.31
  Q 50.90 1110.04 50.77 1042.76
  Q 50.75 1032.20 50.79 1022.75
  Q 51.17 929.75 51.04 836.75
  Z"
/>
<path fill="#4a4f52" d="
  M 84.25 1209.54
  Q 158.29 1210.28 178.25 1210.25
  Q 269.78 1210.09 291.50 1210.30
  Q 362.50 1210.99 433.50 1210.78
  Q 443.49 1210.75 453.49 1210.84
  Q 506.00 1211.28 558.50 1211.22
  Q 641.51 1211.12 724.51 1211.46
  Q 733.55 1211.49 744.50 1211.38
  Q 772.75 1211.10 801.00 1211.29
  L 781.00 1211.51
  Q 780.57 1211.51 780.06 1211.72
  Q 779.14 1212.09 777.75 1212.00
  Q 776.27 1211.91 777.00 1212.96
  Q 761.51 1213.60 746.00 1213.27
  Q 726.13 1212.85 706.25 1212.88
  Q 630.00 1212.97 553.75 1213.04
  Q 506.87 1212.97 460.00 1212.78
  Q 366.37 1212.41 272.74 1212.26
  Q 263.21 1212.25 252.76 1212.07
  Q 220.38 1211.53 188.00 1211.31
  Q 179.41 1211.25 168.01 1211.49
  Q 129.76 1212.28 91.50 1211.25
  Q 89.82 1211.20 84.63 1210.25
  A 0.47 0.37 6.3 0 1 84.24 1209.87
  L 84.25 1209.54
  Z"
/>
<path fill="#5a6064" d="
  M 1546.00 1210.96
  Q 1546.93 1210.73 1547.14 1211.20
  A 0.56 0.42 -19.1 0 1 1546.72 1211.82
  Q 1535.42 1215.08 1521.50 1215.00
  Q 1445.56 1214.56 1227.00 1214.29
  Q 1191.84 1213.76 1180.75 1213.75
  Q 1083.87 1213.64 987.00 1213.51
  Q 978.94 1213.50 967.00 1213.28
  Q 946.08 1212.89 921.75 1213.00
  Q 858.64 1213.29 777.00 1212.96
  Q 776.27 1211.91 777.75 1212.00
  Q 779.14 1212.09 780.06 1211.72
  Q 780.57 1211.51 781.00 1211.51
  L 801.00 1211.29
  Q 934.25 1210.93 1067.50 1210.93
  Q 1069.59 1210.93 1071.68 1211.08
  Q 1074.27 1211.25 1075.83 1211.25
  Q 1343.10 1211.22 1415.50 1211.50
  Q 1488.83 1211.78 1546.00 1210.96
  Z"
/>
<path fill="#3c3f42" d="
  M 777.00 1212.96
  Q 858.64 1213.29 921.75 1213.00
  Q 946.08 1212.89 967.00 1213.28
  Q 978.94 1213.50 987.00 1213.51
  Q 1083.87 1213.64 1180.75 1213.75
  Q 1191.84 1213.76 1227.00 1214.29
  Q 1225.60 1214.54 1224.47 1215.27
  A 1.00 0.88 75.8 0 0 1224.07 1216.05
  Q 1224.05 1219.39 1221.27 1219.43
  A 2.45 2.44 10.0 0 0 1219.01 1221.01
  Q 1216.89 1226.57 1216.38 1230.95
  Q 1216.25 1232.05 1215.61 1233.93
  Q 1215.10 1235.42 1215.17 1237.06
  Q 1215.17 1237.14 1215.10 1237.81
  Q 1215.04 1238.35 1215.50 1238.69
  Q 1215.76 1238.89 1215.45 1238.89
  Q 1214.61 1238.89 1214.00 1239.46
  Q 863.31 1239.16 718.50 1239.25
  Q 711.67 1239.25 708.50 1239.25
  Q 620.62 1239.13 532.75 1238.71
  Q 531.64 1238.06 530.29 1238.17
  A 0.60 0.38 -16.4 0 1 529.87 1238.05
  Q 529.64 1237.81 530.20 1237.73
  Q 531.46 1237.53 531.83 1236.42
  A 1.46 0.99 -88.5 0 1 532.37 1235.67
  Q 535.85 1233.63 540.00 1234.00
  Q 541.22 1234.11 543.95 1233.07
  Q 544.91 1232.71 547.82 1232.08
  Q 551.00 1231.38 554.05 1228.67
  A 3.08 3.07 -24.3 0 0 555.06 1226.01
  Q 554.70 1223.04 555.57 1220.70
  A 1.31 1.12 -49.9 0 0 555.56 1219.78
  Q 555.08 1218.70 554.29 1217.85
  Q 553.24 1216.72 553.13 1215.95
  Q 552.91 1214.46 553.75 1213.04
  Q 630.00 1212.97 706.25 1212.88
  Q 726.13 1212.85 746.00 1213.27
  Q 761.51 1213.60 777.00 1212.96
  Z"
/>
</svg>
