<?xml version="1.0" encoding="UTF-8" standalone="no"?>
<!DOCTYPE svg PUBLIC "-//W3C//DTD SVG 1.1//EN" "http://www.w3.org/Graphics/SVG/1.1/DTD/svg11.dtd">
<svg xmlns="http://www.w3.org/2000/svg" version="1.1" viewBox="0 0 1633 1283">
<g stroke-width="2.0" fill="none" stroke-linecap="butt">
<path stroke="#505050" vector-effect="non-scaling-stroke" d="
  M 51.54 254.00
  L 52.04 392.50"
/>
<path stroke="#585858" vector-effect="non-scaling-stroke" d="
  M 52.04 392.50
  Q 52.14 414.92 51.50 482.50
  Q 50.87 548.34 51.29 861.00"
/>
<path stroke="#535353" vector-effect="non-scaling-stroke" d="
  M 51.29 861.00
  L 50.06 1239.21
  A 0.49 0.48 0.0 0 0 50.55 1239.69
  L 270.50 1238.71"
/>
<path stroke="#565656" vector-effect="non-scaling-stroke" d="
  M 270.50 1238.71
  L 496.75 1238.71"
/>
<path stroke="#5e5e5e" vector-effect="non-scaling-stroke" d="
  M 496.75 1238.71
  L 629.00 1238.96"
/>
<path stroke="#636363" vector-effect="non-scaling-stroke" d="
  M 629.00 1238.96
  Q 687.00 1238.87 745.00 1239.19
  Q 754.09 1239.24 765.00 1239.13
  Q 794.13 1238.84 823.26 1239.13
  Q 835.06 1239.25 843.25 1239.25
  Q 918.75 1239.28 994.25 1239.21"
/>
<path stroke="#5f5f5f" vector-effect="non-scaling-stroke" d="
  M 994.25 1239.21
  L 1169.25 1239.46"
/>
<path stroke="#595959" vector-effect="non-scaling-stroke" d="
  M 1169.25 1239.46
  Q 1196.00 1239.41 1222.75 1239.65
  Q 1230.48 1239.72 1242.75 1239.59
  Q 1260.00 1239.40 1282.75 1239.75
  Q 1297.20 1239.97 1319.33 1239.63
  Q 1323.74 1239.56 1334.15 1240.06
  Q 1341.56 1240.42 1349.00 1239.96"
/>
<path stroke="#555555" vector-effect="non-scaling-stroke" d="
  M 1349.00 1239.96
  Q 1385.00 1239.13 1421.00 1239.02
  Q 1455.88 1238.91 1490.75 1240.06
  Q 1495.66 1240.22 1513.75 1239.75
  Q 1546.59 1238.90 1579.32 1238.94
  A 0.43 0.43 -89.3 0 0 1579.75 1238.52
  Q 1579.96 1222.08 1579.84 1205.66
  Q 1579.78 1198.10 1579.91 1187.84
  Q 1580.00 1180.14 1580.00 1170.00
  Q 1580.00 1054.38 1580.01 991.81
  Q 1580.02 920.28 1580.00 848.75
  Q 1580.00 848.53 1579.79 848.50"
/>
<path stroke="#595959" vector-effect="non-scaling-stroke" d="
  M 1579.79 848.50
  L 1579.46 349.00"
/>
<path stroke="#545454" vector-effect="non-scaling-stroke" d="
  M 1579.46 349.00
  Q 1579.53 219.75 1579.69 90.50
  Q 1579.72 70.15 1579.99 49.81
  Q 1579.99 49.66 1580.12 48.21
  Q 1580.36 45.44 1577.59 45.63
  Q 1575.99 45.75 1575.89 45.75
  Q 1438.44 45.49 1301.00 46.29"
/>
<path stroke="#5d5d5d" vector-effect="non-scaling-stroke" d="
  M 1301.00 46.29
  L 1120.00 46.54"
/>
<path stroke="#636363" vector-effect="non-scaling-stroke" d="
  M 1120.00 46.54
  L 909.25 46.71"
/>
<path stroke="#686868" vector-effect="non-scaling-stroke" d="
  M 909.25 46.71
  L 653.25 46.54"
/>
<path stroke="#5d5d5d" vector-effect="non-scaling-stroke" d="
  M 653.25 46.54
  Q 646.09 46.40 638.92 46.46
  Q 636.27 46.48 631.59 46.25
  Q 627.92 46.07 624.24 46.18
  Q 614.96 46.45 613.24 46.43
  Q 581.62 46.05 550.00 46.29"
/>
<path stroke="#4d4d4d" vector-effect="non-scaling-stroke" d="
  M 550.00 46.29
  Q 539.99 45.59 530.00 46.46"
/>
<path stroke="#5d5d5d" vector-effect="non-scaling-stroke" d="
  M 530.00 46.46
  L 422.00 46.54"
/>
<path stroke="#5a5a5a" vector-effect="non-scaling-stroke" d="
  M 422.00 46.54
  L 295.00 46.79"
/>
<path stroke="#525252" vector-effect="non-scaling-stroke" d="
  M 295.00 46.79
  Q 292.00 46.54 288.99 46.60
  Q 283.27 46.73 283.01 46.73
  Q 240.13 46.44 197.25 45.96"
/>
<path stroke="#4d4d4d" vector-effect="non-scaling-stroke" d="
  M 197.25 45.96
  Q 179.38 45.35 161.50 45.24
  Q 106.28 44.88 51.06 44.57
  A 0.48 0.48 0.0 0 0 50.57 45.06
  L 51.54 254.00"
/>
<path stroke="#626262" vector-effect="non-scaling-stroke" d="
  M 197.25 45.96
  Q 195.68 45.91 194.12 46.09
  Q 193.79 46.13 191.89 46.05
  Q 190.70 46.00 189.65 46.70
  A 0.91 0.79 73.0 0 0 189.30 47.49
  Q 189.48 50.23 187.44 52.69
  Q 185.67 54.82 181.00 62.50
  Q 180.10 63.98 180.25 66.21"
/>
<path stroke="#6d6d6d" vector-effect="non-scaling-stroke" d="
  M 180.25 66.21
  Q 154.12 65.83 128.00 66.29
  Q 110.21 66.61 108.01 66.69
  Q 96.93 67.12 84.75 68.50
  Q 80.44 68.99 79.25 72.96"
/>
<path stroke="#939393" vector-effect="non-scaling-stroke" d="
  M 79.25 72.96
  Q 78.26 73.59 78.25 74.25
  Q 77.18 123.87 78.09 173.50
  Q 78.18 178.42 78.22 183.34
  Q 78.25 187.33 78.02 193.17
  Q 77.47 206.95 77.96 220.75"
/>
<path stroke="#606060" vector-effect="non-scaling-stroke" d="
  M 77.96 220.75
  Q 77.47 225.10 77.75 227.25
  Q 77.91 228.46 77.47 229.28
  Q 77.21 229.75 76.99 229.23
  Q 76.26 227.53 75.54 225.84
  Q 75.07 224.72 74.36 225.44
  Q 74.10 225.71 73.97 226.30
  Q 73.37 229.01 71.43 230.86
  Q 70.67 231.59 69.21 232.08
  Q 67.98 232.50 66.78 232.99
  Q 65.33 233.57 63.07 233.90
  Q 61.32 234.16 59.68 234.85
  Q 58.26 235.44 57.07 235.47
  Q 55.69 235.51 54.32 235.55
  A 1.43 1.07 16.5 0 0 53.43 235.88
  Q 52.77 236.50 52.51 237.40
  Q 52.44 237.65 52.37 237.40
  Q 52.07 236.14 51.84 237.60
  Q 51.81 237.80 51.83 238.04
  Q 52.45 246.03 51.54 254.00"
/>
<path stroke="#6f6f6f" vector-effect="non-scaling-stroke" d="
  M 295.00 46.79
  Q 295.46 48.91 294.22 50.49
  Q 293.42 51.49 293.36 51.59
  Q 288.24 59.25 282.50 66.46"
/>
<path stroke="#727272" vector-effect="non-scaling-stroke" d="
  M 282.50 66.46
  Q 280.16 66.48 277.83 66.60
  Q 275.11 66.74 273.16 66.72
  Q 226.71 66.14 180.25 66.21"
/>
<path stroke="#b5b5b4" vector-effect="non-scaling-stroke" d="
  M 78.96 229.50
  Q 79.09 231.96 77.79 231.00"
/>
<path stroke="#969696" vector-effect="non-scaling-stroke" d="
  M 77.79 231.00
  L 77.96 220.75"
/>
<path stroke="#828281" vector-effect="non-scaling-stroke" d="
  M 77.79 231.00
  Q 77.43 249.38 77.61 267.75
  Q 77.72 278.45 77.51 287.75
  Q 77.17 302.87 77.00 318.00
  Q 76.90 326.68 77.09 332.84
  Q 77.43 343.88 77.38 347.68
  Q 77.20 360.21 77.21 372.75"
/>
<path stroke="#6b6b6b" vector-effect="non-scaling-stroke" d="
  M 77.21 372.75
  Q 76.59 373.91 75.72 374.89
  Q 74.95 375.77 73.59 376.25
  Q 70.68 377.27 67.77 378.30
  Q 65.81 378.98 64.73 380.56
  Q 62.73 383.51 62.72 383.52
  Q 61.46 384.78 59.97 385.79
  A 1.70 1.65 -6.4 0 0 59.37 386.52
  Q 58.40 388.80 57.25 391.00
  Q 55.81 393.74 53.07 392.64
  A 0.61 0.54 -84.2 0 1 52.72 392.15
  Q 52.59 390.78 52.04 392.50"
/>
<path stroke="#888888" vector-effect="non-scaling-stroke" d="
  M 653.25 46.54
  L 626.00 46.96"
/>
<path stroke="#848484" vector-effect="non-scaling-stroke" d="
  M 626.00 46.96
  Q 594.59 47.24 563.19 47.37
  Q 557.26 47.40 551.34 47.57
  Q 548.02 47.66 540.67 47.43
  Q 534.97 47.25 529.99 47.83
  Q 526.43 48.24 528.93 50.80
  Q 535.98 58.04 541.74 66.86
  A 0.97 0.97 74.3 0 0 542.54 67.31
  Q 559.99 67.71 577.32 67.75
  Q 578.37 67.75 586.16 68.00
  Q 590.58 68.13 595.01 67.85
  Q 597.56 67.68 605.00 68.25
  Q 611.16 68.72 622.75 67.71"
/>
<path stroke="#888888" vector-effect="non-scaling-stroke" d="
  M 622.75 67.71
  Q 663.12 68.57 703.51 68.72
  Q 712.17 68.76 723.49 69.10
  Q 737.66 69.52 749.75 69.50
  Q 787.18 69.43 815.75 69.66
  Q 825.18 69.73 835.74 69.58
  Q 859.24 69.24 882.75 69.46"
/>
<path stroke="#838383" vector-effect="non-scaling-stroke" d="
  M 882.75 69.46
  Q 904.43 69.70 926.10 69.57
  Q 926.49 69.57 928.22 69.90
  Q 929.18 70.09 930.44 69.94
  Q 936.51 69.18 943.50 70.71"
/>
<path stroke="#5d5d5d" vector-effect="non-scaling-stroke" d="
  M 943.50 70.71
  Q 928.12 71.03 899.44 70.94
  Q 819.25 70.69 684.50 70.98
  Q 676.29 71.00 664.50 70.91
  Q 634.75 70.68 604.99 71.09
  Q 594.62 71.24 584.99 71.13
  Q 552.87 70.76 520.75 70.73
  Q 512.03 70.73 503.40 71.71
  Q 496.59 72.49 491.54 72.43
  Q 457.77 72.02 424.00 72.01
  Q 364.71 71.99 305.42 71.77
  Q 301.45 71.75 297.09 71.86
  Q 290.94 72.01 288.75 72.00
  Q 251.12 71.85 213.49 72.16
  Q 205.38 72.23 193.50 72.12
  Q 173.87 71.94 146.25 72.25
  Q 124.07 72.50 85.50 72.03
  Q 82.54 71.99 80.04 73.50"
/>
<path stroke="#a3a3a3" vector-effect="non-scaling-stroke" d="
  M 80.04 73.50
  Q 79.80 72.97 79.25 72.96"
/>
<path stroke="#7a7a7a" vector-effect="non-scaling-stroke" d="
  M 282.50 66.46
  Q 285.49 66.80 288.50 66.79
  Q 326.63 66.58 364.74 67.38
  Q 368.65 67.46 375.74 67.12
  Q 381.24 66.86 386.75 67.06
  Q 401.10 67.58 415.99 66.91
  Q 418.88 66.78 418.93 63.82
  L 419.23 47.51
  A 0.67 0.53 -6.9 0 1 419.76 46.98
  L 422.00 46.54"
/>
<path stroke="#b5b5b4" vector-effect="non-scaling-stroke" d="
  M 78.46 399.50
  Q 78.11 396.74 78.24 393.95
  Q 78.25 393.72 78.18 393.56
  Q 78.07 393.32 77.93 393.23
  Q 77.54 392.97 77.52 393.70
  L 77.29 400.00"
/>
<path stroke="#8a8a89" vector-effect="non-scaling-stroke" d="
  M 77.29 400.00
  L 77.21 372.75"
/>
<path stroke="#595959" vector-effect="non-scaling-stroke" d="
  M 1551.04 463.75
  Q 1550.97 543.69 1551.00 623.63
  Q 1551.00 623.75 1551.05 623.85
  Q 1551.11 623.97 1551.17 624.08
  Q 1551.25 624.25 1551.25 624.44
  Q 1550.83 658.99 1551.25 721.50
  Q 1551.57 768.72 1551.01 917.75
  Q 1551.00 920.17 1551.10 922.75
  Q 1551.26 926.83 1551.25 927.75
  Q 1550.72 977.96 1551.25 1017.00
  Q 1551.78 1056.13 1550.77 1160.50
  Q 1550.55 1184.31 1549.29 1208.09
  Q 1549.28 1208.18 1549.36 1209.41
  Q 1549.46 1210.88 1547.75 1210.79"
/>
<path stroke="#7e7e7e" vector-effect="non-scaling-stroke" d="
  M 1547.75 1210.79
  Q 1514.04 1211.33 1480.33 1211.49
  Q 1478.87 1211.50 1475.67 1211.30
  Q 1473.33 1211.15 1470.99 1211.24
  Q 1464.07 1211.50 1464.00 1211.50
  Q 1274.88 1211.46 1085.75 1211.21
  Q 1051.13 1211.16 1016.50 1210.85
  Q 1006.66 1210.76 996.51 1210.85
  Q 964.63 1211.15 932.75 1211.10
  Q 929.25 1211.09 925.75 1211.10
  Q 793.25 1211.22 660.75 1211.29"
/>
<path stroke="#6f6f6e" vector-effect="non-scaling-stroke" d="
  M 660.75 1211.29
  Q 595.37 1211.22 530.00 1211.23
  Q 516.00 1211.24 502.00 1210.97
  Q 490.19 1210.75 481.99 1210.75
  Q 412.88 1210.75 343.76 1210.75
  Q 334.10 1210.75 323.76 1210.65
  Q 237.00 1209.79 150.24 1209.98
  Q 141.31 1209.99 130.25 1209.89
  Q 106.87 1209.67 83.50 1209.79"
/>
<path stroke="#535353" vector-effect="non-scaling-stroke" d="
  M 83.50 1209.79
  Q 81.64 1210.94 79.79 1210.25"
/>
<path stroke="#838383" vector-effect="non-scaling-stroke" d="
  M 79.79 1210.25
  Q 78.21 1208.21 78.63 1205.90
  Q 79.21 1202.64 79.22 1202.38
  Q 79.60 1176.06 79.49 1149.75
  Q 79.27 1096.87 79.05 1044.00
  Q 78.23 852.38 78.53 660.75
  Q 78.67 573.00 78.29 485.26
  Q 78.25 475.62 78.31 465.24
  Q 78.50 432.37 78.46 399.50"
/>
<path stroke="#6f6f6e" vector-effect="non-scaling-stroke" d="
  M 78.46 399.50
  L 78.96 229.50"
/>
<path stroke="#838383" vector-effect="non-scaling-stroke" d="
  M 78.96 229.50
  Q 79.29 157.50 79.91 85.50
  Q 79.91 85.39 79.71 79.64
  Q 79.61 76.57 80.04 73.50"
/>
<path stroke="#9e9e9e" vector-effect="non-scaling-stroke" d="
  M 77.29 400.00
  Q 76.89 439.87 76.54 479.75
  Q 76.46 488.13 76.71 496.50
  Q 77.53 523.88 77.17 551.26
  Q 77.00 564.54 76.99 571.24
  Q 76.75 741.39 76.00 821.50
  Q 75.74 849.67 75.96 857.50"
/>
<path stroke="#6e6e6e" vector-effect="non-scaling-stroke" d="
  M 75.96 857.50
  Q 75.38 856.45 75.27 855.25
  A 0.39 0.39 -11.2 0 0 74.76 854.91
  Q 72.85 855.53 70.95 856.17
  Q 69.91 856.52 67.41 857.95
  Q 65.40 859.10 63.06 859.37
  Q 62.16 859.47 59.70 858.75
  Q 57.98 858.24 55.46 858.27
  A 1.94 1.93 73.0 0 1 53.83 857.40
  Q 53.42 856.77 53.05 857.25
  Q 52.79 857.58 52.72 857.20
  Q 51.59 851.44 52.00 859.00
  Q 52.08 860.52 51.29 861.00"
/>
<path stroke="#636363" vector-effect="non-scaling-stroke" d="
  M 1059.50 70.79
  L 943.50 70.71"
/>
<path stroke="#8e8e8e" vector-effect="non-scaling-stroke" d="
  M 909.25 46.71
  L 939.93 46.81
  Q 940.36 46.81 939.94 46.85
  Q 937.94 47.02 939.49 47.45
  A 0.67 0.53 10.0 0 1 939.99 48.01
  Q 939.98 48.56 939.50 48.75
  Q 937.49 49.53 931.50 51.25
  Q 929.12 51.93 927.53 52.66
  Q 926.49 53.13 923.68 54.30
  Q 919.13 56.19 919.06 61.81
  Q 919.02 65.55 916.69 65.19
  Q 915.14 64.94 913.88 65.51
  Q 911.89 66.42 911.41 66.52
  Q 901.33 68.50 896.25 68.25
  Q 891.87 68.04 889.16 68.79
  A 1.95 1.75 41.3 0 1 888.21 68.80
  Q 885.39 68.05 882.75 69.46"
/>
<path stroke="#8f8f8f" vector-effect="non-scaling-stroke" d="
  M 622.75 67.71
  Q 620.22 68.01 619.81 66.44
  Q 617.98 59.45 616.11 52.89
  A 2.84 2.84 -35.2 0 1 616.53 50.47
  Q 617.70 48.82 618.80 47.99
  Q 619.78 47.25 621.90 47.25
  Q 634.08 47.25 646.25 47.20
  Q 648.03 47.19 646.50 47.17
  Q 636.25 47.03 626.00 46.96"
/>
<path stroke="#6d6d6d" vector-effect="non-scaling-stroke" d="
  M 550.00 46.29
  Q 540.00 47.77 530.00 46.46"
/>
<path stroke="#999999" vector-effect="non-scaling-stroke" d="
  M 79.79 1210.25
  Q 79.28 1210.87 78.63 1210.60
  Q 78.22 1210.42 77.96 1209.82
  Q 76.50 1206.39 76.50 1200.50
  Q 76.55 1104.15 77.19 1007.81
  Q 77.23 1001.71 76.71 975.74
  Q 76.52 966.73 76.61 955.75
  Q 76.81 932.13 76.26 908.51
  Q 76.01 897.35 76.01 888.49
  Q 76.01 872.99 75.96 857.50"
/>
<path stroke="#717171" vector-effect="non-scaling-stroke" d="
  M 1579.79 848.50
  Q 1580.20 850.22 1579.08 850.62
  Q 1576.12 851.68 1575.06 849.19
  Q 1574.83 848.66 1574.89 847.29
  Q 1574.95 846.19 1574.44 845.31
  Q 1573.66 843.97 1570.23 839.52
  Q 1568.32 837.05 1565.38 836.93
  Q 1562.72 836.83 1562.62 836.81
  Q 1558.72 836.22 1555.48 835.05
  A 1.07 1.06 -80.1 0 0 1554.06 836.05
  Q 1553.75 895.88 1554.02 955.69
  Q 1554.37 1032.34 1554.18 1109.00
  Q 1554.07 1154.00 1554.50 1199.00
  Q 1554.52 1201.47 1553.66 1205.59
  Q 1552.84 1209.49 1552.72 1209.78
  Q 1551.56 1212.51 1547.79 1211.25"
/>
<path stroke="#9a9a9a" vector-effect="non-scaling-stroke" d="
  M 1547.79 1211.25
  L 1547.75 1210.79"
/>
<path stroke="#b0b0af" vector-effect="non-scaling-stroke" d="
  M 660.75 1211.29
  Q 654.11 1211.82 651.50 1211.50
  Q 649.28 1211.23 647.91 1212.17
  Q 647.65 1212.35 647.99 1212.50
  Q 648.35 1212.66 648.00 1213.21"
/>
<path stroke="#959594" vector-effect="non-scaling-stroke" d="
  M 648.00 1213.21
  L 622.75 1213.29"
/>
<path stroke="#8f8f8f" vector-effect="non-scaling-stroke" d="
  M 622.75 1213.29
  L 490.25 1213.29"
/>
<path stroke="#888887" vector-effect="non-scaling-stroke" d="
  M 490.25 1213.29
  Q 448.37 1213.24 406.50 1212.65
  Q 396.85 1212.51 386.50 1212.54
  Q 360.94 1212.59 335.38 1212.30
  Q 332.27 1212.27 326.63 1212.46
  Q 322.26 1212.61 317.88 1212.51
  Q 305.20 1212.24 305.10 1212.24
  Q 278.80 1212.23 252.50 1212.29"
/>
<path stroke="#858584" vector-effect="non-scaling-stroke" d="
  M 83.50 1209.79
  Q 87.79 1211.12 91.50 1211.25
  Q 124.37 1212.41 162.00 1212.00
  Q 167.38 1211.94 171.02 1211.71
  Q 177.09 1211.31 180.01 1211.40
  Q 193.38 1211.81 206.76 1211.81
  Q 218.99 1211.81 226.75 1211.95
  Q 239.62 1212.18 252.50 1212.29"
/>
<path stroke="#6c6c6c" vector-effect="non-scaling-stroke" d="
  M 252.50 1212.29
  Q 253.03 1212.73 253.69 1212.81
  Q 253.98 1212.84 253.70 1212.91
  Q 252.68 1213.19 253.33 1213.72
  A 1.73 1.08 23.0 0 1 253.87 1214.49
  Q 254.35 1216.45 255.12 1218.31
  Q 255.14 1218.38 255.93 1219.69
  Q 256.44 1220.52 256.75 1222.00
  Q 257.44 1225.25 259.88 1229.18
  A 1.32 1.32 -35.7 0 0 261.85 1229.50
  Q 262.79 1228.73 264.32 1228.95
  Q 265.47 1229.13 266.41 1230.06
  Q 269.53 1233.16 268.89 1237.70
  A 0.65 0.45 17.1 0 0 269.32 1238.25
  L 270.50 1238.71"
/>
<path stroke="#9a9a9a" vector-effect="non-scaling-stroke" d="
  M 1371.75 1214.79
  Q 1357.67 1214.56 1319.50 1214.50
  Q 1248.25 1214.39 1177.00 1214.29"
/>
<path stroke="#a0a0a0" vector-effect="non-scaling-stroke" d="
  M 1177.00 1214.29
  Q 1129.62 1214.46 1082.25 1213.88
  Q 1076.69 1213.81 1062.26 1213.95
  Q 1052.03 1214.05 1038.31 1213.81
  Q 1029.35 1213.66 995.50 1213.79"
/>
<path stroke="#a4a4a4" vector-effect="non-scaling-stroke" d="
  M 995.50 1213.79
  Q 877.63 1213.19 759.75 1213.47
  Q 750.07 1213.50 739.75 1213.43
  Q 693.88 1213.13 648.00 1213.21"
/>
<path stroke="#797979" vector-effect="non-scaling-stroke" d="
  M 1554.04 337.00
  Q 1553.88 338.34 1553.94 342.06
  Q 1554.44 376.84 1554.49 429.25
  Q 1554.51 444.25 1554.74 458.87
  Q 1554.78 460.84 1553.96 462.63
  Q 1553.05 464.65 1551.04 463.75"
/>
<path stroke="#5d5d5d" vector-effect="non-scaling-stroke" d="
  M 1551.04 463.75
  Q 1550.84 288.54 1551.23 113.34
  Q 1551.24 110.24 1550.80 97.18
  Q 1550.53 89.09 1550.98 81.00
  Q 1551.16 77.64 1550.86 75.52
  Q 1550.56 73.45 1548.48 73.33
  Q 1512.68 71.31 1478.05 71.45
  Q 1463.51 71.51 1463.45 71.51
  Q 1261.60 71.64 1059.75 71.00
  Q 1059.53 71.00 1059.50 70.79"
/>
<path stroke="#838383" vector-effect="non-scaling-stroke" d="
  M 1059.50 70.79
  Q 1062.05 69.44 1064.63 68.16
  Q 1066.94 67.01 1069.64 66.84
  Q 1087.00 65.77 1104.19 63.20
  Q 1105.13 63.06 1106.71 62.43
  Q 1107.96 61.93 1109.29 61.78
  Q 1112.98 61.37 1113.18 61.33
  Q 1118.08 60.26 1123.02 59.25
  Q 1124.75 58.89 1123.31 57.66
  L 1120.05 54.88
  Q 1117.90 53.05 1120.57 51.36
  Q 1125.72 48.11 1120.00 46.54"
/>
<path stroke="#717171" vector-effect="non-scaling-stroke" d="
  M 1349.00 1239.96
  Q 1348.91 1239.39 1349.50 1239.43
  Q 1352.24 1239.62 1354.94 1239.26
  A 0.59 0.58 86.1 0 0 1355.44 1238.68
  Q 1355.38 1234.90 1354.00 1231.40
  A 1.77 1.38 12.2 0 0 1353.39 1230.67
  Q 1350.03 1228.39 1352.66 1225.37
  A 1.80 1.12 1.8 0 1 1353.49 1224.89
  Q 1355.12 1224.45 1355.50 1223.00
  Q 1356.71 1218.43 1359.88 1215.57
  A 1.33 1.25 23.0 0 1 1360.74 1215.25
  Q 1366.25 1215.25 1371.75 1215.25
  Q 1373.14 1215.25 1371.75 1214.79"
/>
<path stroke="#969696" vector-effect="non-scaling-stroke" d="
  M 1371.75 1214.79
  Q 1441.37 1214.72 1510.99 1214.97
  Q 1529.38 1215.03 1529.50 1215.02
  Q 1538.83 1214.42 1547.79 1211.25"
/>
<path stroke="#707070" vector-effect="non-scaling-stroke" d="
  M 1579.46 349.00
  Q 1578.96 350.44 1578.94 348.91
  A 0.56 0.52 -80.3 0 0 1578.62 348.42
  Q 1573.00 345.97 1572.98 352.11
  Q 1572.98 352.17 1573.16 353.87
  Q 1573.43 356.34 1571.25 357.41
  A 2.86 2.86 -5.0 0 0 1569.75 359.20
  Q 1568.85 362.44 1566.88 364.61
  A 1.70 1.67 -49.2 0 1 1564.56 364.80
  L 1555.13 357.07
  A 1.30 1.24 -75.3 0 1 1554.68 356.26
  Q 1554.00 351.66 1554.20 347.00
  Q 1554.41 341.99 1554.04 337.00"
/>
<path stroke="#747474" vector-effect="non-scaling-stroke" d="
  M 1554.04 337.00
  Q 1553.73 317.09 1553.85 297.18
  Q 1553.92 285.15 1553.87 277.18
  Q 1553.55 224.73 1553.75 210.50
  Q 1554.24 175.62 1553.11 140.75
  Q 1552.79 130.61 1553.47 120.50
  Q 1554.18 109.99 1553.09 99.52
  Q 1552.11 90.17 1553.31 83.56
  Q 1554.49 77.09 1552.44 71.96
  Q 1551.65 69.97 1550.29 69.16
  Q 1548.87 68.31 1546.75 68.00
  Q 1541.16 67.17 1539.25 67.16
  Q 1513.87 66.97 1488.50 66.81
  Q 1479.20 66.75 1468.50 66.82
  Q 1425.25 67.10 1382.00 66.82
  Q 1372.99 66.76 1362.01 66.87
  Q 1335.13 67.12 1308.25 66.70
  Q 1304.08 66.64 1299.99 65.85
  A 1.06 1.04 -7.7 0 1 1299.26 65.30
  Q 1296.84 60.77 1297.17 56.47
  Q 1297.33 54.51 1298.65 53.06
  Q 1301.28 50.18 1302.06 47.55
  A 0.78 0.53 30.3 0 0 1301.73 46.85
  L 1301.00 46.29"
/>
<path stroke="#777777" vector-effect="non-scaling-stroke" d="
  M 490.25 1213.29
  Q 491.82 1213.33 492.74 1214.30
  Q 493.85 1215.48 493.93 1215.54
  Q 496.71 1217.67 499.92 1219.07
  Q 500.54 1219.34 501.55 1220.06
  Q 502.26 1220.56 503.25 1221.00
  Q 506.52 1222.45 506.45 1225.68
  Q 506.41 1227.64 506.09 1228.82
  Q 505.62 1230.52 503.81 1231.31
  Q 499.98 1232.99 497.37 1234.45
  Q 496.10 1235.16 495.81 1236.17
  Q 495.37 1237.73 496.75 1238.71"
/>
<path stroke="#858585" vector-effect="non-scaling-stroke" d="
  M 995.50 1213.79
  Q 994.90 1214.91 994.24 1215.98
  Q 993.55 1217.11 993.47 1218.32
  Q 993.05 1224.28 993.35 1230.24
  Q 993.57 1234.65 992.50 1236.50
  Q 990.88 1239.31 994.25 1239.21"
/>
<path stroke="#848484" vector-effect="non-scaling-stroke" d="
  M 622.75 1213.29
  Q 624.72 1213.64 623.94 1214.49
  Q 623.55 1214.91 623.44 1215.30
  Q 622.52 1218.46 619.28 1219.59
  Q 617.13 1220.34 615.04 1221.32
  Q 613.05 1222.27 614.80 1223.62
  Q 619.77 1227.46 624.64 1231.83
  Q 624.67 1231.86 626.09 1232.91
  Q 628.21 1234.49 628.18 1238.03
  A 0.41 0.40 -0.7 0 0 628.60 1238.43
  Q 630.15 1238.36 629.00 1238.96"
/>
<path stroke="#7a7a7a" vector-effect="non-scaling-stroke" d="
  M 1177.00 1214.29
  Q 1174.54 1214.57 1172.09 1214.90
  Q 1169.97 1215.18 1172.77 1215.88
  Q 1173.77 1216.13 1172.88 1216.63
  Q 1169.92 1218.32 1170.25 1221.50
  Q 1170.53 1224.24 1170.10 1226.89
  Q 1169.38 1231.32 1169.33 1232.17
  Q 1169.15 1234.99 1168.97 1237.81
  A 0.85 0.67 20.7 0 0 1169.39 1238.50
  Q 1169.98 1238.86 1169.25 1239.46"
/>
<path stroke="#c9c9c9" vector-effect="non-scaling-stroke" d="
  M 77.82 520.89
  Q 77.80 520.57 77.73 520.28
  Q 77.51 519.44 77.53 520.31
  L 77.63 525.93
  Q 77.65 526.58 77.90 525.97
  Q 78.83 523.73 77.93 521.48
  Q 77.83 521.21 77.82 520.89"
/>
<path stroke="#c9c9c9" vector-effect="non-scaling-stroke" d="
  M 77.76 527.07
  Q 77.50 526.46 77.50 527.12
  L 77.50 531.76
  A 0.61 0.46 89.1 0 0 77.98 532.37
  Q 78.47 532.35 78.35 531.48
  Q 78.27 530.95 78.31 530.51
  Q 78.49 528.75 77.76 527.07"
/>
</g>
<path fill="#3d3d3d" d="
  M 153.81 36.94
  Q 176.94 37.07 192.25 37.31
  Q 200.47 37.44 212.25 37.51
  Q 224.14 37.57 236.02 37.92
  Q 247.64 38.25 255.99 38.25
  Q 288.75 38.27 321.50 38.37
  Q 470.75 38.85 620.00 38.29
  Q 630.44 38.25 640.00 38.24
  Q 982.97 38.02 1325.94 38.77
  Q 1454.09 39.05 1582.43 39.00
  A 1.33 1.33 -89.2 0 1 1583.76 40.37
  Q 1583.66 44.91 1584.01 49.14
  Q 1584.52 55.38 1584.55 57.89
  Q 1584.97 96.52 1585.00 170.25
  Q 1585.16 562.94 1584.75 814.00
  Q 1584.36 1052.14 1584.50 1218.51
  Q 1584.50 1221.15 1584.77 1227.50
  Q 1585.02 1233.52 1584.50 1236.50
  Q 1583.82 1240.34 1584.02 1244.75
  A 1.60 1.59 89.0 0 1 1582.41 1246.43
  Q 1546.75 1246.21 1510.84 1245.33
  Q 1510.76 1245.33 1504.67 1244.99
  Q 1500.72 1244.78 1495.50 1245.00
  Q 1477.66 1245.76 1445.00 1246.25
  Q 1406.58 1246.83 1336.09 1244.83
  Q 1334.05 1244.77 1330.46 1245.30
  Q 1327.53 1245.73 1324.75 1245.50
  Q 1320.49 1245.15 1316.62 1245.27
  Q 1309.49 1245.50 1309.37 1245.50
  Q 1187.68 1245.50 1066.00 1245.65
  Q 693.13 1246.10 320.25 1246.21
  Q 316.88 1246.21 313.50 1246.21
  Q 186.50 1246.23 59.50 1245.29
  Q 52.07 1245.23 44.55 1243.97
  A 1.28 1.27 4.4 0 1 43.49 1242.74
  Q 42.81 1188.91 42.94 1134.56
  Q 42.96 1125.02 42.61 1090.76
  Q 42.50 1080.48 42.49 1070.75
  Q 42.19 856.37 42.06 642.00
  Q 41.98 522.10 42.50 497.25
  Q 42.89 478.38 43.02 459.50
  Q 43.85 339.25 43.75 219.00
  Q 43.72 184.62 44.24 56.75
  Q 44.24 56.67 44.47 50.77
  Q 44.64 46.26 43.92 41.45
  Q 43.48 38.56 46.40 38.56
  Q 51.05 38.57 56.32 38.18
  Q 62.80 37.71 66.20 37.63
  Q 106.56 36.67 153.81 36.94
  Z
  M 51.54 254.00
  L 52.04 392.50
  Q 52.14 414.92 51.50 482.50
  Q 50.87 548.34 51.29 861.00
  L 50.06 1239.21
  A 0.49 0.48 0.0 0 0 50.55 1239.69
  L 270.50 1238.71
  L 496.75 1238.71
  L 629.00 1238.96
  Q 687.00 1238.87 745.00 1239.19
  Q 754.09 1239.24 765.00 1239.13
  Q 794.13 1238.84 823.26 1239.13
  Q 835.06 1239.25 843.25 1239.25
  Q 918.75 1239.28 994.25 1239.21
  L 1169.25 1239.46
  Q 1196.00 1239.41 1222.75 1239.65
  Q 1230.48 1239.72 1242.75 1239.59
  Q 1260.00 1239.40 1282.75 1239.75
  Q 1297.20 1239.97 1319.33 1239.63
  Q 1323.74 1239.56 1334.15 1240.06
  Q 1341.56 1240.42 1349.00 1239.96
  Q 1385.00 1239.13 1421.00 1239.02
  Q 1455.88 1238.91 1490.75 1240.06
  Q 1495.66 1240.22 1513.75 1239.75
  Q 1546.59 1238.90 1579.32 1238.94
  A 0.43 0.43 -89.3 0 0 1579.75 1238.52
  Q 1579.96 1222.08 1579.84 1205.66
  Q 1579.78 1198.10 1579.91 1187.84
  Q 1580.00 1180.14 1580.00 1170.00
  Q 1580.00 1054.38 1580.01 991.81
  Q 1580.02 920.28 1580.00 848.75
  Q 1580.00 848.53 1579.79 848.50
  L 1579.46 349.00
  Q 1579.53 219.75 1579.69 90.50
  Q 1579.72 70.15 1579.99 49.81
  Q 1579.99 49.66 1580.12 48.21
  Q 1580.36 45.44 1577.59 45.63
  Q 1575.99 45.75 1575.89 45.75
  Q 1438.44 45.49 1301.00 46.29
  L 1120.00 46.54
  L 909.25 46.71
  L 653.25 46.54
  Q 646.09 46.40 638.92 46.46
  Q 636.27 46.48 631.59 46.25
  Q 627.92 46.07 624.24 46.18
  Q 614.96 46.45 613.24 46.43
  Q 581.62 46.05 550.00 46.29
  Q 539.99 45.59 530.00 46.46
  L 422.00 46.54
  L 295.00 46.79
  Q 292.00 46.54 288.99 46.60
  Q 283.27 46.73 283.01 46.73
  Q 240.13 46.44 197.25 45.96
  Q 179.38 45.35 161.50 45.24
  Q 106.28 44.88 51.06 44.57
  A 0.48 0.48 0.0 0 0 50.57 45.06
  L 51.54 254.00
  Z"
/>
<path fill="#5c5c5c" d="
  M 197.25 45.96
  Q 195.68 45.91 194.12 46.09
  Q 193.79 46.13 191.89 46.05
  Q 190.70 46.00 189.65 46.70
  A 0.91 0.79 73.0 0 0 189.30 47.49
  Q 189.48 50.23 187.44 52.69
  Q 185.67 54.82 181.00 62.50
  Q 180.10 63.98 180.25 66.21
  Q 154.12 65.83 128.00 66.29
  Q 110.21 66.61 108.01 66.69
  Q 96.93 67.12 84.75 68.50
  Q 80.44 68.99 79.25 72.96
  Q 78.26 73.59 78.25 74.25
  Q 77.18 123.87 78.09 173.50
  Q 78.18 178.42 78.22 183.34
  Q 78.25 187.33 78.02 193.17
  Q 77.47 206.95 77.96 220.75
  Q 77.47 225.10 77.75 227.25
  Q 77.91 228.46 77.47 229.28
  Q 77.21 229.75 76.99 229.23
  Q 76.26 227.53 75.54 225.84
  Q 75.07 224.72 74.36 225.44
  Q 74.10 225.71 73.97 226.30
  Q 73.37 229.01 71.43 230.86
  Q 70.67 231.59 69.21 232.08
  Q 67.98 232.50 66.78 232.99
  Q 65.33 233.57 63.07 233.90
  Q 61.32 234.16 59.68 234.85
  Q 58.26 235.44 57.07 235.47
  Q 55.69 235.51 54.32 235.55
  A 1.43 1.07 16.5 0 0 53.43 235.88
  Q 52.77 236.50 52.51 237.40
  Q 52.44 237.65 52.37 237.40
  Q 52.07 236.14 51.84 237.60
  Q 51.81 237.80 51.83 238.04
  Q 52.45 246.03 51.54 254.00
  L 50.57 45.06
  A 0.48 0.48 35.4 0 1 51.06 44.57
  Q 106.28 44.88 161.50 45.24
  Q 179.38 45.35 197.25 45.96
  Z"
/>
<path fill="#6b6b6b" d="
  M 1579.46 349.00
  Q 1578.96 350.44 1578.94 348.91
  A 0.56 0.52 -80.3 0 0 1578.62 348.42
  Q 1573.00 345.97 1572.98 352.11
  Q 1572.98 352.17 1573.16 353.87
  Q 1573.43 356.34 1571.25 357.41
  A 2.86 2.86 -5.0 0 0 1569.75 359.20
  Q 1568.85 362.44 1566.88 364.61
  A 1.70 1.67 -49.2 0 1 1564.56 364.80
  L 1555.13 357.07
  A 1.30 1.24 -75.3 0 1 1554.68 356.26
  Q 1554.00 351.66 1554.20 347.00
  Q 1554.41 341.99 1554.04 337.00
  Q 1553.73 317.09 1553.85 297.18
  Q 1553.92 285.15 1553.87 277.18
  Q 1553.55 224.73 1553.75 210.50
  Q 1554.24 175.62 1553.11 140.75
  Q 1552.79 130.61 1553.47 120.50
  Q 1554.18 109.99 1553.09 99.52
  Q 1552.11 90.17 1553.31 83.56
  Q 1554.49 77.09 1552.44 71.96
  Q 1551.65 69.97 1550.29 69.16
  Q 1548.87 68.31 1546.75 68.00
  Q 1541.16 67.17 1539.25 67.16
  Q 1513.87 66.97 1488.50 66.81
  Q 1479.20 66.75 1468.50 66.82
  Q 1425.25 67.10 1382.00 66.82
  Q 1372.99 66.76 1362.01 66.87
  Q 1335.13 67.12 1308.25 66.70
  Q 1304.08 66.64 1299.99 65.85
  A 1.06 1.04 -7.7 0 1 1299.26 65.30
  Q 1296.84 60.77 1297.17 56.47
  Q 1297.33 54.51 1298.65 53.06
  Q 1301.28 50.18 1302.06 47.55
  A 0.78 0.53 30.3 0 0 1301.73 46.85
  L 1301.00 46.29
  Q 1438.44 45.49 1575.89 45.75
  Q 1575.99 45.75 1577.59 45.63
  Q 1580.36 45.44 1580.12 48.21
  Q 1579.99 49.66 1579.99 49.81
  Q 1579.72 70.15 1579.69 90.50
  Q 1579.53 219.75 1579.46 349.00
  Z"
/>
<path fill="#676767" d="
  M 197.25 45.96
  Q 240.13 46.44 283.01 46.73
  Q 283.27 46.73 288.99 46.60
  Q 292.00 46.54 295.00 46.79
  Q 295.46 48.91 294.22 50.49
  Q 293.42 51.49 293.36 51.59
  Q 288.24 59.25 282.50 66.46
  Q 280.16 66.48 277.83 66.60
  Q 275.11 66.74 273.16 66.72
  Q 226.71 66.14 180.25 66.21
  Q 180.10 63.98 181.00 62.50
  Q 185.67 54.82 187.44 52.69
  Q 189.48 50.23 189.30 47.49
  A 0.91 0.79 73.0 0 1 189.65 46.70
  Q 190.70 46.00 191.89 46.05
  Q 193.79 46.13 194.12 46.09
  Q 195.68 45.91 197.25 45.96
  Z"
/>
<path fill="#5c5c5c" d="
  M 550.00 46.29
  Q 540.00 47.77 530.00 46.46
  Q 539.99 45.59 550.00 46.29
  Z"
/>
<path fill="#7d7d7d" d="
  M 653.25 46.54
  L 626.00 46.96
  Q 594.59 47.24 563.19 47.37
  Q 557.26 47.40 551.34 47.57
  Q 548.02 47.66 540.67 47.43
  Q 534.97 47.25 529.99 47.83
  Q 526.43 48.24 528.93 50.80
  Q 535.98 58.04 541.74 66.86
  A 0.97 0.97 74.3 0 0 542.54 67.31
  Q 559.99 67.71 577.32 67.75
  Q 578.37 67.75 586.16 68.00
  Q 590.58 68.13 595.01 67.85
  Q 597.56 67.68 605.00 68.25
  Q 611.16 68.72 622.75 67.71
  Q 663.12 68.57 703.51 68.72
  Q 712.17 68.76 723.49 69.10
  Q 737.66 69.52 749.75 69.50
  Q 787.18 69.43 815.75 69.66
  Q 825.18 69.73 835.74 69.58
  Q 859.24 69.24 882.75 69.46
  Q 904.43 69.70 926.10 69.57
  Q 926.49 69.57 928.22 69.90
  Q 929.18 70.09 930.44 69.94
  Q 936.51 69.18 943.50 70.71
  Q 928.12 71.03 899.44 70.94
  Q 819.25 70.69 684.50 70.98
  Q 676.29 71.00 664.50 70.91
  Q 634.75 70.68 604.99 71.09
  Q 594.62 71.24 584.99 71.13
  Q 552.87 70.76 520.75 70.73
  Q 512.03 70.73 503.40 71.71
  Q 496.59 72.49 491.54 72.43
  Q 457.77 72.02 424.00 72.01
  Q 364.71 71.99 305.42 71.77
  Q 301.45 71.75 297.09 71.86
  Q 290.94 72.01 288.75 72.00
  Q 251.12 71.85 213.49 72.16
  Q 205.38 72.23 193.50 72.12
  Q 173.87 71.94 146.25 72.25
  Q 124.07 72.50 85.50 72.03
  Q 82.54 71.99 80.04 73.50
  Q 79.80 72.97 79.25 72.96
  Q 80.44 68.99 84.75 68.50
  Q 96.93 67.12 108.01 66.69
  Q 110.21 66.61 128.00 66.29
  Q 154.12 65.83 180.25 66.21
  Q 226.71 66.14 273.16 66.72
  Q 275.11 66.74 277.83 66.60
  Q 280.16 66.48 282.50 66.46
  Q 285.49 66.80 288.50 66.79
  Q 326.63 66.58 364.74 67.38
  Q 368.65 67.46 375.74 67.12
  Q 381.24 66.86 386.75 67.06
  Q 401.10 67.58 415.99 66.91
  Q 418.88 66.78 418.93 63.82
  L 419.23 47.51
  A 0.67 0.53 -6.9 0 1 419.76 46.98
  L 422.00 46.54
  L 530.00 46.46
  Q 540.00 47.77 550.00 46.29
  Q 581.62 46.05 613.24 46.43
  Q 614.96 46.45 624.24 46.18
  Q 627.92 46.07 631.59 46.25
  Q 636.27 46.48 638.92 46.46
  Q 646.09 46.40 653.25 46.54
  Z"
/>
<path fill="#7d7d7d" d="
  M 1301.00 46.29
  L 1301.73 46.85
  A 0.78 0.53 30.3 0 1 1302.06 47.55
  Q 1301.28 50.18 1298.65 53.06
  Q 1297.33 54.51 1297.17 56.47
  Q 1296.84 60.77 1299.26 65.30
  A 1.06 1.04 -7.7 0 0 1299.99 65.85
  Q 1304.08 66.64 1308.25 66.70
  Q 1335.13 67.12 1362.01 66.87
  Q 1372.99 66.76 1382.00 66.82
  Q 1425.25 67.10 1468.50 66.82
  Q 1479.20 66.75 1488.50 66.81
  Q 1513.87 66.97 1539.25 67.16
  Q 1541.16 67.17 1546.75 68.00
  Q 1548.87 68.31 1550.29 69.16
  Q 1551.65 69.97 1552.44 71.96
  Q 1554.49 77.09 1553.31 83.56
  Q 1552.11 90.17 1553.09 99.52
  Q 1554.18 109.99 1553.47 120.50
  Q 1552.79 130.61 1553.11 140.75
  Q 1554.24 175.62 1553.75 210.50
  Q 1553.55 224.73 1553.87 277.18
  Q 1553.92 285.15 1553.85 297.18
  Q 1553.73 317.09 1554.04 337.00
  Q 1553.88 338.34 1553.94 342.06
  Q 1554.44 376.84 1554.49 429.25
  Q 1554.51 444.25 1554.74 458.87
  Q 1554.78 460.84 1553.96 462.63
  Q 1553.05 464.65 1551.04 463.75
  Q 1550.84 288.54 1551.23 113.34
  Q 1551.24 110.24 1550.80 97.18
  Q 1550.53 89.09 1550.98 81.00
  Q 1551.16 77.64 1550.86 75.52
  Q 1550.56 73.45 1548.48 73.33
  Q 1512.68 71.31 1478.05 71.45
  Q 1463.51 71.51 1463.45 71.51
  Q 1261.60 71.64 1059.75 71.00
  Q 1059.53 71.00 1059.50 70.79
  Q 1062.05 69.44 1064.63 68.16
  Q 1066.94 67.01 1069.64 66.84
  Q 1087.00 65.77 1104.19 63.20
  Q 1105.13 63.06 1106.71 62.43
  Q 1107.96 61.93 1109.29 61.78
  Q 1112.98 61.37 1113.18 61.33
  Q 1118.08 60.26 1123.02 59.25
  Q 1124.75 58.89 1123.31 57.66
  L 1120.05 54.88
  Q 1117.90 53.05 1120.57 51.36
  Q 1125.72 48.11 1120.00 46.54
  L 1301.00 46.29
  Z"
/>
<path fill="#767676" d="
  M 422.00 46.54
  L 419.76 46.98
  A 0.67 0.53 -6.9 0 0 419.23 47.51
  L 418.93 63.82
  Q 418.88 66.78 415.99 66.91
  Q 401.10 67.58 386.75 67.06
  Q 381.24 66.86 375.74 67.12
  Q 368.65 67.46 364.74 67.38
  Q 326.63 66.58 288.50 66.79
  Q 285.49 66.80 282.50 66.46
  Q 288.24 59.25 293.36 51.59
  Q 293.42 51.49 294.22 50.49
  Q 295.46 48.91 295.00 46.79
  L 422.00 46.54
  Z"
/>
<path fill="#939393" d="
  M 653.25 46.54
  L 909.25 46.71
  L 939.93 46.81
  Q 940.36 46.81 939.94 46.85
  Q 937.94 47.02 939.49 47.45
  A 0.67 0.53 10.0 0 1 939.99 48.01
  Q 939.98 48.56 939.50 48.75
  Q 937.49 49.53 931.50 51.25
  Q 929.12 51.93 927.53 52.66
  Q 926.49 53.13 923.68 54.30
  Q 919.13 56.19 919.06 61.81
  Q 919.02 65.55 916.69 65.19
  Q 915.14 64.94 913.88 65.51
  Q 911.89 66.42 911.41 66.52
  Q 901.33 68.50 896.25 68.25
  Q 891.87 68.04 889.16 68.79
  A 1.95 1.75 41.3 0 1 888.21 68.80
  Q 885.39 68.05 882.75 69.46
  Q 859.24 69.24 835.74 69.58
  Q 825.18 69.73 815.75 69.66
  Q 787.18 69.43 749.75 69.50
  Q 737.66 69.52 723.49 69.10
  Q 712.17 68.76 703.51 68.72
  Q 663.12 68.57 622.75 67.71
  Q 620.22 68.01 619.81 66.44
  Q 617.98 59.45 616.11 52.89
  A 2.84 2.84 -35.2 0 1 616.53 50.47
  Q 617.70 48.82 618.80 47.99
  Q 619.78 47.25 621.90 47.25
  Q 634.08 47.25 646.25 47.20
  Q 648.03 47.19 646.50 47.17
  Q 636.25 47.03 626.00 46.96
  L 653.25 46.54
  Z"
/>
<path fill="#898989" d="
  M 1120.00 46.54
  Q 1125.72 48.11 1120.57 51.36
  Q 1117.90 53.05 1120.05 54.88
  L 1123.31 57.66
  Q 1124.75 58.89 1123.02 59.25
  Q 1118.08 60.26 1113.18 61.33
  Q 1112.98 61.37 1109.29 61.78
  Q 1107.96 61.93 1106.71 62.43
  Q 1105.13 63.06 1104.19 63.20
  Q 1087.00 65.77 1069.64 66.84
  Q 1066.94 67.01 1064.63 68.16
  Q 1062.05 69.44 1059.50 70.79
  L 943.50 70.71
  Q 936.51 69.18 930.44 69.94
  Q 929.18 70.09 928.22 69.90
  Q 926.49 69.57 926.10 69.57
  Q 904.43 69.70 882.75 69.46
  Q 885.39 68.05 888.21 68.80
  A 1.95 1.75 41.3 0 0 889.16 68.79
  Q 891.87 68.04 896.25 68.25
  Q 901.33 68.50 911.41 66.52
  Q 911.89 66.42 913.88 65.51
  Q 915.14 64.94 916.69 65.19
  Q 919.02 65.55 919.06 61.81
  Q 919.13 56.19 923.68 54.30
  Q 926.49 53.13 927.53 52.66
  Q 929.12 51.93 931.50 51.25
  Q 937.49 49.53 939.50 48.75
  Q 939.98 48.56 939.99 48.01
  A 0.67 0.53 10.0 0 0 939.49 47.45
  Q 937.94 47.02 939.94 46.85
  Q 940.36 46.81 939.93 46.81
  L 909.25 46.71
  L 1120.00 46.54
  Z"
/>
<path fill="#8a8a8a" d="
  M 626.00 46.96
  Q 636.25 47.03 646.50 47.17
  Q 648.03 47.19 646.25 47.20
  Q 634.08 47.25 621.90 47.25
  Q 619.78 47.25 618.80 47.99
  Q 617.70 48.82 616.53 50.47
  A 2.84 2.84 -35.2 0 0 616.11 52.89
  Q 617.98 59.45 619.81 66.44
  Q 620.22 68.01 622.75 67.71
  Q 611.16 68.72 605.00 68.25
  Q 597.56 67.68 595.01 67.85
  Q 590.58 68.13 586.16 68.00
  Q 578.37 67.75 577.32 67.75
  Q 559.99 67.71 542.54 67.31
  A 0.97 0.97 74.3 0 1 541.74 66.86
  Q 535.98 58.04 528.93 50.80
  Q 526.43 48.24 529.99 47.83
  Q 534.97 47.25 540.67 47.43
  Q 548.02 47.66 551.34 47.57
  Q 557.26 47.40 563.19 47.37
  Q 594.59 47.24 626.00 46.96
  Z"
/>
<path fill="#3d3d3d" d="
  M 943.50 70.71
  L 1059.50 70.79
  Q 1059.53 71.00 1059.75 71.00
  Q 1261.60 71.64 1463.45 71.51
  Q 1463.51 71.51 1478.05 71.45
  Q 1512.68 71.31 1548.48 73.33
  Q 1550.56 73.45 1550.86 75.52
  Q 1551.16 77.64 1550.98 81.00
  Q 1550.53 89.09 1550.80 97.18
  Q 1551.24 110.24 1551.23 113.34
  Q 1550.84 288.54 1551.04 463.75
  Q 1550.97 543.69 1551.00 623.63
  Q 1551.00 623.75 1551.05 623.85
  Q 1551.11 623.97 1551.17 624.08
  Q 1551.25 624.25 1551.25 624.44
  Q 1550.83 658.99 1551.25 721.50
  Q 1551.57 768.72 1551.01 917.75
  Q 1551.00 920.17 1551.10 922.75
  Q 1551.26 926.83 1551.25 927.75
  Q 1550.72 977.96 1551.25 1017.00
  Q 1551.78 1056.13 1550.77 1160.50
  Q 1550.55 1184.31 1549.29 1208.09
  Q 1549.28 1208.18 1549.36 1209.41
  Q 1549.46 1210.88 1547.75 1210.79
  Q 1514.04 1211.33 1480.33 1211.49
  Q 1478.87 1211.50 1475.67 1211.30
  Q 1473.33 1211.15 1470.99 1211.24
  Q 1464.07 1211.50 1464.00 1211.50
  Q 1274.88 1211.46 1085.75 1211.21
  Q 1051.13 1211.16 1016.50 1210.85
  Q 1006.66 1210.76 996.51 1210.85
  Q 964.63 1211.15 932.75 1211.10
  Q 929.25 1211.09 925.75 1211.10
  Q 793.25 1211.22 660.75 1211.29
  Q 595.37 1211.22 530.00 1211.23
  Q 516.00 1211.24 502.00 1210.97
  Q 490.19 1210.75 481.99 1210.75
  Q 412.88 1210.75 343.76 1210.75
  Q 334.10 1210.75 323.76 1210.65
  Q 237.00 1209.79 150.24 1209.98
  Q 141.31 1209.99 130.25 1209.89
  Q 106.87 1209.67 83.50 1209.79
  Q 81.64 1210.94 79.79 1210.25
  Q 78.21 1208.21 78.63 1205.90
  Q 79.21 1202.64 79.22 1202.38
  Q 79.60 1176.06 79.49 1149.75
  Q 79.27 1096.87 79.05 1044.00
  Q 78.23 852.38 78.53 660.75
  Q 78.67 573.00 78.29 485.26
  Q 78.25 475.62 78.31 465.24
  Q 78.50 432.37 78.46 399.50
  L 78.96 229.50
  Q 79.29 157.50 79.91 85.50
  Q 79.91 85.39 79.71 79.64
  Q 79.61 76.57 80.04 73.50
  Q 82.54 71.99 85.50 72.03
  Q 124.07 72.50 146.25 72.25
  Q 173.87 71.94 193.50 72.12
  Q 205.38 72.23 213.49 72.16
  Q 251.12 71.85 288.75 72.00
  Q 290.94 72.01 297.09 71.86
  Q 301.45 71.75 305.42 71.77
  Q 364.71 71.99 424.00 72.01
  Q 457.77 72.02 491.54 72.43
  Q 496.59 72.49 503.40 71.71
  Q 512.03 70.73 520.75 70.73
  Q 552.87 70.76 584.99 71.13
  Q 594.62 71.24 604.99 71.09
  Q 634.75 70.68 664.50 70.91
  Q 676.29 71.00 684.50 70.98
  Q 819.25 70.69 899.44 70.94
  Q 928.12 71.03 943.50 70.71
  Z
  M 1266.75 1205.81
  Q 1336.25 1205.71 1405.75 1205.53
  Q 1470.50 1205.36 1535.25 1205.81
  Q 1539.63 1205.84 1545.42 1205.39
  A 0.84 0.83 86.8 0 0 1546.19 1204.52
  Q 1544.95 1166.14 1544.91 1127.94
  Q 1544.75 965.06 1544.69 802.19
  Q 1544.69 795.19 1544.55 782.20
  Q 1544.34 763.35 1544.59 744.50
  Q 1544.75 732.06 1544.75 724.50
  Q 1544.75 414.75 1544.75 105.00
  Q 1544.75 103.15 1545.25 99.03
  Q 1545.62 96.04 1545.42 93.01
  Q 1544.90 85.01 1544.73 75.94
  A 0.68 0.68 -2.7 0 0 1543.99 75.27
  Q 1528.03 76.59 1511.75 76.64
  Q 1494.74 76.69 1477.74 76.88
  Q 1466.64 77.00 1457.75 77.01
  Q 961.89 77.29 760.50 77.25
  Q 705.97 77.24 675.84 77.48
  Q 674.20 77.49 670.16 77.34
  Q 667.76 77.25 664.50 77.25
  Q 610.87 77.25 557.24 77.25
  Q 548.98 77.25 537.26 77.45
  Q 514.58 77.83 508.00 77.25
  Q 499.78 76.53 493.00 76.75
  Q 463.33 77.73 436.00 77.41
  Q 424.02 77.27 416.01 77.34
  Q 357.63 77.85 299.25 77.68
  Q 191.88 77.38 83.03 77.50
  A 0.83 0.83 89.0 0 0 82.20 78.36
  Q 82.97 98.87 83.15 118.00
  Q 83.73 176.25 83.78 234.50
  Q 84.23 718.75 83.00 1204.61
  A 0.92 0.91 -0.0 0 0 83.93 1205.53
  Q 166.53 1203.88 247.81 1205.44
  Q 282.53 1206.10 330.01 1205.61
  Q 341.08 1205.50 350.01 1205.50
  Q 783.94 1205.47 901.25 1206.00
  Q 1000.24 1206.45 1066.50 1206.25
  Q 1191.05 1205.88 1262.50 1206.00
  Q 1263.78 1206.00 1264.63 1205.94
  Q 1266.47 1205.81 1266.75 1205.81
  Z"
/>
<path fill="#c9c9c9" d="
  M 79.25 72.96
  Q 79.80 72.97 80.04 73.50
  Q 79.61 76.57 79.71 79.64
  Q 79.91 85.39 79.91 85.50
  Q 79.29 157.50 78.96 229.50
  Q 79.09 231.96 77.79 231.00
  L 77.96 220.75
  Q 77.47 206.95 78.02 193.17
  Q 78.25 187.33 78.22 183.34
  Q 78.18 178.42 78.09 173.50
  Q 77.18 123.87 78.25 74.25
  Q 78.26 73.59 79.25 72.96
  Z"
/>
<path fill="#636363" d="
  M 77.96 220.75
  L 77.79 231.00
  Q 77.43 249.38 77.61 267.75
  Q 77.72 278.45 77.51 287.75
  Q 77.17 302.87 77.00 318.00
  Q 76.90 326.68 77.09 332.84
  Q 77.43 343.88 77.38 347.68
  Q 77.20 360.21 77.21 372.75
  Q 76.59 373.91 75.72 374.89
  Q 74.95 375.77 73.59 376.25
  Q 70.68 377.27 67.77 378.30
  Q 65.81 378.98 64.73 380.56
  Q 62.73 383.51 62.72 383.52
  Q 61.46 384.78 59.97 385.79
  A 1.70 1.65 -6.4 0 0 59.37 386.52
  Q 58.40 388.80 57.25 391.00
  Q 55.81 393.74 53.07 392.64
  A 0.61 0.54 -84.2 0 1 52.72 392.15
  Q 52.59 390.78 52.04 392.50
  L 51.54 254.00
  Q 52.45 246.03 51.83 238.04
  Q 51.81 237.80 51.84 237.60
  Q 52.07 236.14 52.37 237.40
  Q 52.44 237.65 52.51 237.40
  Q 52.77 236.50 53.43 235.88
  A 1.43 1.07 16.5 0 1 54.32 235.55
  Q 55.69 235.51 57.07 235.47
  Q 58.26 235.44 59.68 234.85
  Q 61.32 234.16 63.07 233.90
  Q 65.33 233.57 66.78 232.99
  Q 67.98 232.50 69.21 232.08
  Q 70.67 231.59 71.43 230.86
  Q 73.37 229.01 73.97 226.30
  Q 74.10 225.71 74.36 225.44
  Q 75.07 224.72 75.54 225.84
  Q 76.26 227.53 76.99 229.23
  Q 77.21 229.75 77.47 229.28
  Q 77.91 228.46 77.75 227.25
  Q 77.47 225.10 77.96 220.75
  Z"
/>
<path fill="#a0a09f" d="
  M 78.96 229.50
  L 78.46 399.50
  Q 78.11 396.74 78.24 393.95
  Q 78.25 393.72 78.18 393.56
  Q 78.07 393.32 77.93 393.23
  Q 77.54 392.97 77.52 393.70
  L 77.29 400.00
  L 77.21 372.75
  Q 77.20 360.21 77.38 347.68
  Q 77.43 343.88 77.09 332.84
  Q 76.90 326.68 77.00 318.00
  Q 77.17 302.87 77.51 287.75
  Q 77.72 278.45 77.61 267.75
  Q 77.43 249.38 77.79 231.00
  Q 79.09 231.96 78.96 229.50
  Z"
/>
<path fill="#747474" d="
  M 1554.04 337.00
  Q 1554.41 341.99 1554.20 347.00
  Q 1554.00 351.66 1554.68 356.26
  A 1.30 1.24 -75.3 0 0 1555.13 357.07
  L 1564.56 364.80
  A 1.70 1.67 -49.2 0 0 1566.88 364.61
  Q 1568.85 362.44 1569.75 359.20
  A 2.86 2.86 -5.0 0 1 1571.25 357.41
  Q 1573.43 356.34 1573.16 353.87
  Q 1572.98 352.17 1572.98 352.11
  Q 1573.00 345.97 1578.62 348.42
  A 0.56 0.52 -80.3 0 1 1578.94 348.91
  Q 1578.96 350.44 1579.46 349.00
  L 1579.79 848.50
  Q 1580.20 850.22 1579.08 850.62
  Q 1576.12 851.68 1575.06 849.19
  Q 1574.83 848.66 1574.89 847.29
  Q 1574.95 846.19 1574.44 845.31
  Q 1573.66 843.97 1570.23 839.52
  Q 1568.32 837.05 1565.38 836.93
  Q 1562.72 836.83 1562.62 836.81
  Q 1558.72 836.22 1555.48 835.05
  A 1.07 1.06 -80.1 0 0 1554.06 836.05
  Q 1553.75 895.88 1554.02 955.69
  Q 1554.37 1032.34 1554.18 1109.00
  Q 1554.07 1154.00 1554.50 1199.00
  Q 1554.52 1201.47 1553.66 1205.59
  Q 1552.84 1209.49 1552.72 1209.78
  Q 1551.56 1212.51 1547.79 1211.25
  L 1547.75 1210.79
  Q 1549.46 1210.88 1549.36 1209.41
  Q 1549.28 1208.18 1549.29 1208.09
  Q 1550.55 1184.31 1550.77 1160.50
  Q 1551.78 1056.13 1551.25 1017.00
  Q 1550.72 977.96 1551.25 927.75
  Q 1551.26 926.83 1551.10 922.75
  Q 1551.00 920.17 1551.01 917.75
  Q 1551.57 768.72 1551.25 721.50
  Q 1550.83 658.99 1551.25 624.44
  Q 1551.25 624.25 1551.17 624.08
  Q 1551.11 623.97 1551.05 623.85
  Q 1551.00 623.75 1551.00 623.63
  Q 1550.97 543.69 1551.04 463.75
  Q 1553.05 464.65 1553.96 462.63
  Q 1554.78 460.84 1554.74 458.87
  Q 1554.51 444.25 1554.49 429.25
  Q 1554.44 376.84 1553.94 342.06
  Q 1553.88 338.34 1554.04 337.00
  Z"
/>
<path fill="#737373" d="
  M 77.21 372.75
  L 77.29 400.00
  Q 76.89 439.87 76.54 479.75
  Q 76.46 488.13 76.71 496.50
  Q 77.53 523.88 77.17 551.26
  Q 77.00 564.54 76.99 571.24
  Q 76.75 741.39 76.00 821.50
  Q 75.74 849.67 75.96 857.50
  Q 75.38 856.45 75.27 855.25
  A 0.39 0.39 -11.2 0 0 74.76 854.91
  Q 72.85 855.53 70.95 856.17
  Q 69.91 856.52 67.41 857.95
  Q 65.40 859.10 63.06 859.37
  Q 62.16 859.47 59.70 858.75
  Q 57.98 858.24 55.46 858.27
  A 1.94 1.93 73.0 0 1 53.83 857.40
  Q 53.42 856.77 53.05 857.25
  Q 52.79 857.58 52.72 857.20
  Q 51.59 851.44 52.00 859.00
  Q 52.08 860.52 51.29 861.00
  Q 50.87 548.34 51.50 482.50
  Q 52.14 414.92 52.04 392.50
  Q 52.59 390.78 52.72 392.15
  A 0.61 0.54 -84.2 0 0 53.07 392.64
  Q 55.81 393.74 57.25 391.00
  Q 58.40 388.80 59.37 386.52
  A 1.70 1.65 -6.4 0 1 59.97 385.79
  Q 61.46 384.78 62.72 383.52
  Q 62.73 383.51 64.73 380.56
  Q 65.81 378.98 67.77 378.30
  Q 70.68 377.27 73.59 376.25
  Q 74.95 375.77 75.72 374.89
  Q 76.59 373.91 77.21 372.75
  Z"
/>
<path fill="#c9c9c9" d="
  M 78.46 399.50
  Q 78.50 432.37 78.31 465.24
  Q 78.25 475.62 78.29 485.26
  Q 78.67 573.00 78.53 660.75
  Q 78.23 852.38 79.05 1044.00
  Q 79.27 1096.87 79.49 1149.75
  Q 79.60 1176.06 79.22 1202.38
  Q 79.21 1202.64 78.63 1205.90
  Q 78.21 1208.21 79.79 1210.25
  Q 79.28 1210.87 78.63 1210.60
  Q 78.22 1210.42 77.96 1209.82
  Q 76.50 1206.39 76.50 1200.50
  Q 76.55 1104.15 77.19 1007.81
  Q 77.23 1001.71 76.71 975.74
  Q 76.52 966.73 76.61 955.75
  Q 76.81 932.13 76.26 908.51
  Q 76.01 897.35 76.01 888.49
  Q 76.01 872.99 75.96 857.50
  Q 75.74 849.67 76.00 821.50
  Q 76.75 741.39 76.99 571.24
  Q 77.00 564.54 77.17 551.26
  Q 77.53 523.88 76.71 496.50
  Q 76.46 488.13 76.54 479.75
  Q 76.89 439.87 77.29 400.00
  L 77.52 393.70
  Q 77.54 392.97 77.93 393.23
  Q 78.07 393.32 78.18 393.56
  Q 78.25 393.72 78.24 393.95
  Q 78.11 396.74 78.46 399.50
  Z
  M 77.82 520.89
  Q 77.80 520.57 77.73 520.28
  Q 77.51 519.44 77.53 520.31
  L 77.63 525.93
  Q 77.65 526.58 77.90 525.97
  Q 78.83 523.73 77.93 521.48
  Q 77.83 521.21 77.82 520.89
  Z
  M 77.76 527.07
  Q 77.50 526.46 77.50 527.12
  L 77.50 531.76
  A 0.61 0.46 89.1 0 0 77.98 532.37
  Q 78.47 532.35 78.35 531.48
  Q 78.27 530.95 78.31 530.51
  Q 78.49 528.75 77.76 527.07
  Z"
/>
<path fill="#c9c9c9" d="
  M 77.93 521.48
  Q 78.83 523.73 77.90 525.97
  Q 77.65 526.58 77.63 525.93
  L 77.53 520.31
  Q 77.51 519.44 77.73 520.28
  Q 77.80 520.57 77.82 520.89
  Q 77.83 521.21 77.93 521.48
  Z"
/>
<path fill="#c9c9c9" d="
  M 77.76 527.07
  Q 78.49 528.75 78.31 530.51
  Q 78.27 530.95 78.35 531.48
  Q 78.47 532.35 77.98 532.37
  A 0.61 0.46 89.1 0 1 77.50 531.76
  L 77.50 527.12
  Q 77.50 526.46 77.76 527.07
  Z"
/>
<path fill="#6d6d6d" d="
  M 1579.79 848.50
  Q 1580.00 848.53 1580.00 848.75
  Q 1580.02 920.28 1580.01 991.81
  Q 1580.00 1054.38 1580.00 1170.00
  Q 1580.00 1180.14 1579.91 1187.84
  Q 1579.78 1198.10 1579.84 1205.66
  Q 1579.96 1222.08 1579.75 1238.52
  A 0.43 0.43 -89.3 0 1 1579.32 1238.94
  Q 1546.59 1238.90 1513.75 1239.75
  Q 1495.66 1240.22 1490.75 1240.06
  Q 1455.88 1238.91 1421.00 1239.02
  Q 1385.00 1239.13 1349.00 1239.96
  Q 1348.91 1239.39 1349.50 1239.43
  Q 1352.24 1239.62 1354.94 1239.26
  A 0.59 0.58 86.1 0 0 1355.44 1238.68
  Q 1355.38 1234.90 1354.00 1231.40
  A 1.77 1.38 12.2 0 0 1353.39 1230.67
  Q 1350.03 1228.39 1352.66 1225.37
  A 1.80 1.12 1.8 0 1 1353.49 1224.89
  Q 1355.12 1224.45 1355.50 1223.00
  Q 1356.71 1218.43 1359.88 1215.57
  A 1.33 1.25 23.0 0 1 1360.74 1215.25
  Q 1366.25 1215.25 1371.75 1215.25
  Q 1373.14 1215.25 1371.75 1214.79
  Q 1441.37 1214.72 1510.99 1214.97
  Q 1529.38 1215.03 1529.50 1215.02
  Q 1538.83 1214.42 1547.79 1211.25
  Q 1551.56 1212.51 1552.72 1209.78
  Q 1552.84 1209.49 1553.66 1205.59
  Q 1554.52 1201.47 1554.50 1199.00
  Q 1554.07 1154.00 1554.18 1109.00
  Q 1554.37 1032.34 1554.02 955.69
  Q 1553.75 895.88 1554.06 836.05
  A 1.07 1.06 -80.1 0 1 1555.48 835.05
  Q 1558.72 836.22 1562.62 836.81
  Q 1562.72 836.83 1565.38 836.93
  Q 1568.32 837.05 1570.23 839.52
  Q 1573.66 843.97 1574.44 845.31
  Q 1574.95 846.19 1574.89 847.29
  Q 1574.83 848.66 1575.06 849.19
  Q 1576.12 851.68 1579.08 850.62
  Q 1580.20 850.22 1579.79 848.50
  Z"
/>
<path fill="#696969" d="
  M 75.96 857.50
  Q 76.01 872.99 76.01 888.49
  Q 76.01 897.35 76.26 908.51
  Q 76.81 932.13 76.61 955.75
  Q 76.52 966.73 76.71 975.74
  Q 77.23 1001.71 77.19 1007.81
  Q 76.55 1104.15 76.50 1200.50
  Q 76.50 1206.39 77.96 1209.82
  Q 78.22 1210.42 78.63 1210.60
  Q 79.28 1210.87 79.79 1210.25
  Q 81.64 1210.94 83.50 1209.79
  Q 87.79 1211.12 91.50 1211.25
  Q 124.37 1212.41 162.00 1212.00
  Q 167.38 1211.94 171.02 1211.71
  Q 177.09 1211.31 180.01 1211.40
  Q 193.38 1211.81 206.76 1211.81
  Q 218.99 1211.81 226.75 1211.95
  Q 239.62 1212.18 252.50 1212.29
  Q 253.03 1212.73 253.69 1212.81
  Q 253.98 1212.84 253.70 1212.91
  Q 252.68 1213.19 253.33 1213.72
  A 1.73 1.08 23.0 0 1 253.87 1214.49
  Q 254.35 1216.45 255.12 1218.31
  Q 255.14 1218.38 255.93 1219.69
  Q 256.44 1220.52 256.75 1222.00
  Q 257.44 1225.25 259.88 1229.18
  A 1.32 1.32 -35.7 0 0 261.85 1229.50
  Q 262.79 1228.73 264.32 1228.95
  Q 265.47 1229.13 266.41 1230.06
  Q 269.53 1233.16 268.89 1237.70
  A 0.65 0.45 17.1 0 0 269.32 1238.25
  L 270.50 1238.71
  L 50.55 1239.69
  A 0.49 0.48 0.0 0 1 50.06 1239.21
  L 51.29 861.00
  Q 52.08 860.52 52.00 859.00
  Q 51.59 851.44 52.72 857.20
  Q 52.79 857.58 53.05 857.25
  Q 53.42 856.77 53.83 857.40
  A 1.94 1.93 73.0 0 0 55.46 858.27
  Q 57.98 858.24 59.70 858.75
  Q 62.16 859.47 63.06 859.37
  Q 65.40 859.10 67.41 857.95
  Q 69.91 856.52 70.95 856.17
  Q 72.85 855.53 74.76 854.91
  A 0.39 0.39 -11.2 0 1 75.27 855.25
  Q 75.38 856.45 75.96 857.50
  Z"
/>
<path fill="#a0a09f" d="
  M 83.50 1209.79
  Q 106.87 1209.67 130.25 1209.89
  Q 141.31 1209.99 150.24 1209.98
  Q 237.00 1209.79 323.76 1210.65
  Q 334.10 1210.75 343.76 1210.75
  Q 412.88 1210.75 481.99 1210.75
  Q 490.19 1210.75 502.00 1210.97
  Q 516.00 1211.24 530.00 1211.23
  Q 595.37 1211.22 660.75 1211.29
  Q 654.11 1211.82 651.50 1211.50
  Q 649.28 1211.23 647.91 1212.17
  Q 647.65 1212.35 647.99 1212.50
  Q 648.35 1212.66 648.00 1213.21
  L 622.75 1213.29
  L 490.25 1213.29
  Q 448.37 1213.24 406.50 1212.65
  Q 396.85 1212.51 386.50 1212.54
  Q 360.94 1212.59 335.38 1212.30
  Q 332.27 1212.27 326.63 1212.46
  Q 322.26 1212.61 317.88 1212.51
  Q 305.20 1212.24 305.10 1212.24
  Q 278.80 1212.23 252.50 1212.29
  Q 239.62 1212.18 226.75 1211.95
  Q 218.99 1211.81 206.76 1211.81
  Q 193.38 1211.81 180.01 1211.40
  Q 177.09 1211.31 171.02 1211.71
  Q 167.38 1211.94 162.00 1212.00
  Q 124.37 1212.41 91.50 1211.25
  Q 87.79 1211.12 83.50 1209.79
  Z"
/>
<path fill="#bfbfbf" d="
  M 1547.75 1210.79
  L 1547.79 1211.25
  Q 1538.83 1214.42 1529.50 1215.02
  Q 1529.38 1215.03 1510.99 1214.97
  Q 1441.37 1214.72 1371.75 1214.79
  Q 1357.67 1214.56 1319.50 1214.50
  Q 1248.25 1214.39 1177.00 1214.29
  Q 1129.62 1214.46 1082.25 1213.88
  Q 1076.69 1213.81 1062.26 1213.95
  Q 1052.03 1214.05 1038.31 1213.81
  Q 1029.35 1213.66 995.50 1213.79
  Q 877.63 1213.19 759.75 1213.47
  Q 750.07 1213.50 739.75 1213.43
  Q 693.88 1213.13 648.00 1213.21
  Q 648.35 1212.66 647.99 1212.50
  Q 647.65 1212.35 647.91 1212.17
  Q 649.28 1211.23 651.50 1211.50
  Q 654.11 1211.82 660.75 1211.29
  Q 793.25 1211.22 925.75 1211.10
  Q 929.25 1211.09 932.75 1211.10
  Q 964.63 1211.15 996.51 1210.85
  Q 1006.66 1210.76 1016.50 1210.85
  Q 1051.13 1211.16 1085.75 1211.21
  Q 1274.88 1211.46 1464.00 1211.50
  Q 1464.07 1211.50 1470.99 1211.24
  Q 1473.33 1211.15 1475.67 1211.30
  Q 1478.87 1211.50 1480.33 1211.49
  Q 1514.04 1211.33 1547.75 1210.79
  Z"
/>
<path fill="#6f6f6f" d="
  M 252.50 1212.29
  Q 278.80 1212.23 305.10 1212.24
  Q 305.20 1212.24 317.88 1212.51
  Q 322.26 1212.61 326.63 1212.46
  Q 332.27 1212.27 335.38 1212.30
  Q 360.94 1212.59 386.50 1212.54
  Q 396.85 1212.51 406.50 1212.65
  Q 448.37 1213.24 490.25 1213.29
  Q 491.82 1213.33 492.74 1214.30
  Q 493.85 1215.48 493.93 1215.54
  Q 496.71 1217.67 499.92 1219.07
  Q 500.54 1219.34 501.55 1220.06
  Q 502.26 1220.56 503.25 1221.00
  Q 506.52 1222.45 506.45 1225.68
  Q 506.41 1227.64 506.09 1228.82
  Q 505.62 1230.52 503.81 1231.31
  Q 499.98 1232.99 497.37 1234.45
  Q 496.10 1235.16 495.81 1236.17
  Q 495.37 1237.73 496.75 1238.71
  L 270.50 1238.71
  L 269.32 1238.25
  A 0.65 0.45 17.1 0 1 268.89 1237.70
  Q 269.53 1233.16 266.41 1230.06
  Q 265.47 1229.13 264.32 1228.95
  Q 262.79 1228.73 261.85 1229.50
  A 1.32 1.32 -35.7 0 1 259.88 1229.18
  Q 257.44 1225.25 256.75 1222.00
  Q 256.44 1220.52 255.93 1219.69
  Q 255.14 1218.38 255.12 1218.31
  Q 254.35 1216.45 253.87 1214.49
  A 1.73 1.08 23.0 0 0 253.33 1213.72
  Q 252.68 1213.19 253.70 1212.91
  Q 253.98 1212.84 253.69 1212.81
  Q 253.03 1212.73 252.50 1212.29
  Z"
/>
<path fill="#7e7e7e" d="
  M 622.75 1213.29
  Q 624.72 1213.64 623.94 1214.49
  Q 623.55 1214.91 623.44 1215.30
  Q 622.52 1218.46 619.28 1219.59
  Q 617.13 1220.34 615.04 1221.32
  Q 613.05 1222.27 614.80 1223.62
  Q 619.77 1227.46 624.64 1231.83
  Q 624.67 1231.86 626.09 1232.91
  Q 628.21 1234.49 628.18 1238.03
  A 0.41 0.40 -0.7 0 0 628.60 1238.43
  Q 630.15 1238.36 629.00 1238.96
  L 496.75 1238.71
  Q 495.37 1237.73 495.81 1236.17
  Q 496.10 1235.16 497.37 1234.45
  Q 499.98 1232.99 503.81 1231.31
  Q 505.62 1230.52 506.09 1228.82
  Q 506.41 1227.64 506.45 1225.68
  Q 506.52 1222.45 503.25 1221.00
  Q 502.26 1220.56 501.55 1220.06
  Q 500.54 1219.34 499.92 1219.07
  Q 496.71 1217.67 493.93 1215.54
  Q 493.85 1215.48 492.74 1214.30
  Q 491.82 1213.33 490.25 1213.29
  L 622.75 1213.29
  Z"
/>
<path fill="#898989" d="
  M 622.75 1213.29
  L 648.00 1213.21
  Q 693.88 1213.13 739.75 1213.43
  Q 750.07 1213.50 759.75 1213.47
  Q 877.63 1213.19 995.50 1213.79
  Q 994.90 1214.91 994.24 1215.98
  Q 993.55 1217.11 993.47 1218.32
  Q 993.05 1224.28 993.35 1230.24
  Q 993.57 1234.65 992.50 1236.50
  Q 990.88 1239.31 994.25 1239.21
  Q 918.75 1239.28 843.25 1239.25
  Q 835.06 1239.25 823.26 1239.13
  Q 794.13 1238.84 765.00 1239.13
  Q 754.09 1239.24 745.00 1239.19
  Q 687.00 1238.87 629.00 1238.96
  Q 630.15 1238.36 628.60 1238.43
  A 0.41 0.40 -0.7 0 1 628.18 1238.03
  Q 628.21 1234.49 626.09 1232.91
  Q 624.67 1231.86 624.64 1231.83
  Q 619.77 1227.46 614.80 1223.62
  Q 613.05 1222.27 615.04 1221.32
  Q 617.13 1220.34 619.28 1219.59
  Q 622.52 1218.46 623.44 1215.30
  Q 623.55 1214.91 623.94 1214.49
  Q 624.72 1213.64 622.75 1213.29
  Z"
/>
<path fill="#808080" d="
  M 995.50 1213.79
  Q 1029.35 1213.66 1038.31 1213.81
  Q 1052.03 1214.05 1062.26 1213.95
  Q 1076.69 1213.81 1082.25 1213.88
  Q 1129.62 1214.46 1177.00 1214.29
  Q 1174.54 1214.57 1172.09 1214.90
  Q 1169.97 1215.18 1172.77 1215.88
  Q 1173.77 1216.13 1172.88 1216.63
  Q 1169.92 1218.32 1170.25 1221.50
  Q 1170.53 1224.24 1170.10 1226.89
  Q 1169.38 1231.32 1169.33 1232.17
  Q 1169.15 1234.99 1168.97 1237.81
  A 0.85 0.67 20.7 0 0 1169.39 1238.50
  Q 1169.98 1238.86 1169.25 1239.46
  L 994.25 1239.21
  Q 990.88 1239.31 992.50 1236.50
  Q 993.57 1234.65 993.35 1230.24
  Q 993.05 1224.28 993.47 1218.32
  Q 993.55 1217.11 994.24 1215.98
  Q 994.90 1214.91 995.50 1213.79
  Z"
/>
<path fill="#747474" d="
  M 1177.00 1214.29
  Q 1248.25 1214.39 1319.50 1214.50
  Q 1357.67 1214.56 1371.75 1214.79
  Q 1373.14 1215.25 1371.75 1215.25
  Q 1366.25 1215.25 1360.74 1215.25
  A 1.33 1.25 23.0 0 0 1359.88 1215.57
  Q 1356.71 1218.43 1355.50 1223.00
  Q 1355.12 1224.45 1353.49 1224.89
  A 1.80 1.12 1.8 0 0 1352.66 1225.37
  Q 1350.03 1228.39 1353.39 1230.67
  A 1.77 1.38 12.2 0 1 1354.00 1231.40
  Q 1355.38 1234.90 1355.44 1238.68
  A 0.59 0.58 86.1 0 1 1354.94 1239.26
  Q 1352.24 1239.62 1349.50 1239.43
  Q 1348.91 1239.39 1349.00 1239.96
  Q 1341.56 1240.42 1334.15 1240.06
  Q 1323.74 1239.56 1319.33 1239.63
  Q 1297.20 1239.97 1282.75 1239.75
  Q 1260.00 1239.40 1242.75 1239.59
  Q 1230.48 1239.72 1222.75 1239.65
  Q 1196.00 1239.41 1169.25 1239.46
  Q 1169.98 1238.86 1169.39 1238.50
  A 0.85 0.67 20.7 0 1 1168.97 1237.81
  Q 1169.15 1234.99 1169.33 1232.17
  Q 1169.38 1231.32 1170.10 1226.89
  Q 1170.53 1224.24 1170.25 1221.50
  Q 1169.92 1218.32 1172.88 1216.63
  Q 1173.77 1216.13 1172.77 1215.88
  Q 1169.97 1215.18 1172.09 1214.90
  Q 1174.54 1214.57 1177.00 1214.29
  Z"
/>
</svg>
